<?xml version="1.0" encoding="UTF-8"?>
<svg id="Ebene_2" data-name="Ebene 2" xmlns="http://www.w3.org/2000/svg" viewBox="0 0 906.42 883.76">
  <defs>
    <style>
      .cls-1 {
        fill: #f4991c;
      }

      .cls-2 {
        fill: #2d0e0f;
      }
    </style>
  </defs>
  <g id="Ebene_1-2" data-name="Ebene 1">
    <g>
      <path class="cls-2" d="m160.51,0h585.39c88.75,0,160.51,71.76,160.51,160.51v562.73c0,88.75-71.76,160.51-160.51,160.51H160.51C71.76,883.76,0,812,0,723.24V160.51C0,71.76,71.76,0,160.51,0Z"/>
      <path class="cls-1" d="m438.1,528.74h-140.49l-28.7,88.75c-.76,3.4-3.78,5.67-7.18,5.29h-71c-4.15,0-5.29-2.27-4.15-6.8l121.61-350.1c1.13-3.78,2.27-7.93,3.78-12.46,1.51-7.93,2.27-16.24,2.27-24.55-.38-1.89,1.13-3.78,3.02-4.15h97.82c3.02,0,4.53,1.13,4.91,3.02l137.85,389c1.13,4.15,0,6.04-3.78,6.04h-78.93c-2.64.38-5.29-1.51-6.04-4.15l-30.97-89.89Zm-118.59-76.67h95.93c-2.27-7.93-5.29-17.37-8.69-27.19-3.4-10.2-6.8-21.15-10.2-32.48-3.78-11.71-7.18-23.04-10.95-34.75s-7.18-22.66-10.2-33.61c-3.02-10.57-5.67-20.39-8.31-29.46h-.76c-3.4,16.24-7.55,32.48-12.84,48.72-5.67,18.13-11.33,37.01-17.37,55.9-5.29,19.26-10.95,37.01-16.62,52.87Zm322.53-161.27c-12.46.38-24.55-4.53-33.61-13.22-8.69-9.44-13.22-21.91-12.84-34.75-.38-12.84,4.53-24.93,13.6-33.61,9.06-8.69,21.15-13.22,33.61-13.22,14.73,0,26.06,4.53,34.37,13.22,8.31,9.06,12.84,21.15,12.46,33.61.38,12.84-4.15,25.3-13.22,34.75-8.69,9.06-21.53,13.97-34.37,13.22h0Zm-42.3,327.82v-290.81c0-3.78,1.51-5.29,4.91-5.29h74.78c3.4,0,4.91,1.89,4.91,5.29v290.81c0,4.15-1.51,6.04-4.91,6.04h-74.02c-3.78,0-5.67-2.27-5.67-6.04Z"/>
    </g>
  </g>
</svg>