<?xml version="1.0" encoding="UTF-8"?>
<svg id="Ebene_2" data-name="Ebene 2" xmlns="http://www.w3.org/2000/svg" viewBox="0 0 114.92 172.37">
  <defs>
    <style>
      .cls-1 {
        fill: #e94f25;
      }

      .cls-2 {
        fill: #ee7164;
      }

      .cls-3 {
        fill: #44b7ea;
      }

      .cls-4 {
        fill: #765ea5;
      }

      .cls-5 {
        fill: #4cb37d;
      }
    </style>
  </defs>
  <g id="Ebene_1-2" data-name="Ebene 1">
    <g>
      <path class="cls-3" d="m57.46,86.19c0-7.62,3.03-14.93,8.41-20.31s12.7-8.41,20.31-8.41,14.93,3.03,20.32,8.41c5.39,5.39,8.41,12.7,8.41,20.31s-3.03,14.93-8.41,20.31c-5.39,5.39-12.7,8.41-20.32,8.41s-14.93-3.03-20.31-8.41c-5.39-5.39-8.41-12.69-8.41-20.31h0Z"/>
      <path class="cls-5" d="m0,143.65c0-7.62,3.03-14.93,8.41-20.31,5.39-5.39,12.7-8.41,20.31-8.41h28.73v28.73c0,7.62-3.03,14.93-8.41,20.32-5.39,5.39-12.7,8.41-20.31,8.41s-14.93-3.03-20.31-8.41c-5.39-5.39-8.41-12.7-8.41-20.32h0Z"/>
      <path class="cls-2" d="m57.46,0v57.46h28.73c7.62,0,14.93-3.03,20.32-8.41,5.39-5.39,8.41-12.7,8.41-20.31s-3.03-14.93-8.41-20.31C101.12,3.03,93.81,0,86.19,0h-28.73Z"/>
      <path class="cls-1" d="m0,28.73c0,7.62,3.03,14.93,8.41,20.31,5.39,5.39,12.7,8.41,20.31,8.41h28.73V0h-28.73c-7.62,0-14.93,3.03-20.31,8.41C3.03,13.8,0,21.11,0,28.73h0Z"/>
      <path class="cls-4" d="m0,86.19c0,7.62,3.03,14.93,8.41,20.31,5.39,5.39,12.7,8.41,20.31,8.41h28.73v-57.46h-28.73c-7.62,0-14.93,3.03-20.31,8.41-5.39,5.39-8.41,12.7-8.41,20.31h0Z"/>
    </g>
  </g>
</svg>