<?xml version="1.0" encoding="UTF-8"?>
<svg id="Ebene_2" data-name="Ebene 2" xmlns="http://www.w3.org/2000/svg" viewBox="0 0 671.34 654.65">
  <defs>
    <style>
      .cls-1 {
        fill: #eeefe9;
      }

      .cls-2 {
        fill: #7c8377;
      }

      .cls-3, .cls-4 {
        fill: #303031;
      }

      .cls-5 {
        fill: #1d1d1b;
      }

      .cls-4 {
        fill-rule: evenodd;
      }
    </style>
  </defs>
  <g id="Ebene_1-2" data-name="Ebene 1">
    <g>
      <path class="cls-2" d="m345.59,384.73c9.25,2.43,13.26-10.08,31.14-14.72,12.68-3.29,14.98,1.88,24.72-2.83,8.89-4.3,10.04-10.08,20.19-13.21,3.98-1.23,3.9-.37,14.34-1.51,4.35-.48,14.29-1.71,25.66-4.72,11.72-3.1,17.64-4.75,20.38-9.44,2.85-4.88,2.25-11.08.19-15.47-3.08-6.54-9.83-10-15.47-10.57-8.83-.88-12.52,5.54-18.31,3.02-4.58-2-3.16-6.42-8.87-10.19-6.25-4.13-13.87-2.75-15.47-2.45-2.96.54-6.13,2.18-12.46,5.47-7.39,3.84-7.31,4.55-10.19,5.28-7.09,1.81-8.89-2.11-14.53-.75-8.69,2.09-8.76,12.46-16.8,13.59-1.97.28-1.82-.37-11.51-3.4-12.77-3.99-15.25-3.57-16.61-3.21-5.3,1.42-8.3,6-9.81,8.3-4.39,6.7-4.18,13.69-3.96,20.76.14,4.63.43,11.7,4.15,19.82,3.12,6.79,6.66,14.51,13.21,16.23"/>
      <path class="cls-3" d="m345.59,384.73l-.17.65c.86.22,1.68.33,2.48.33,2.1,0,3.98-.74,5.82-1.85,5.53-3.35,11.11-10.07,23.17-13.2,3.48-.9,6.14-1.15,8.39-1.15,2.96,0,5.24.44,7.78.45,2.47,0,5.13-.45,8.67-2.17,4.54-2.2,7.13-4.8,9.78-7.15,2.65-2.36,5.35-4.49,10.32-6.03,1.95-.6,2.8-.67,4.58-.76,1.77-.08,4.4-.15,9.64-.73,4.37-.48,14.34-1.71,25.76-4.74,5.86-1.55,10.29-2.74,13.65-4.15,3.35-1.41,5.68-3.09,7.14-5.59,1.44-2.46,2.03-5.23,2.03-7.92,0-2.93-.7-5.8-1.82-8.18-3.21-6.81-10.17-10.36-16.01-10.95-.6-.06-1.18-.09-1.73-.09-3.28,0-5.85.97-8.05,1.9-2.2.94-4.03,1.8-5.85,1.79-.79,0-1.59-.15-2.47-.53-1.05-.46-1.71-1.03-2.26-1.71-.82-1.02-1.33-2.35-2.19-3.85-.86-1.49-2.08-3.11-4.32-4.58-3.7-2.44-7.82-3.02-10.98-3.02-2.41,0-4.28.34-4.99.47-3.13.58-6.32,2.25-12.64,5.54-3.71,1.93-5.56,3.08-6.82,3.82-1.26.74-1.84,1.04-3.23,1.4-1.33.34-2.45.47-3.43.47-1.66,0-2.96-.36-4.28-.74-1.32-.38-2.66-.79-4.31-.79-.77,0-1.59.09-2.5.31-2.3.55-4.05,1.66-5.47,3.01-2.13,2.02-3.54,4.53-5.15,6.57-1.62,2.05-3.33,3.6-6.12,3.99-.25.03-.44.05-.62.05-.28,0-.53-.04-.92-.15-1.18-.33-3.39-1.31-9.68-3.28-8.99-2.81-12.92-3.46-15.05-3.46-.9,0-1.5.13-1.93.24-5.59,1.51-8.68,6.28-10.2,8.58-3.55,5.4-4.17,11.01-4.17,16.56,0,1.53.05,3.07.09,4.59.14,4.64.43,11.84,4.21,20.07,1.56,3.4,3.24,7.06,5.38,10.12,2.14,3.06,4.78,5.56,8.27,6.48l.17-.65.17-.65c-3.05-.8-5.46-3.02-7.51-5.95-2.04-2.92-3.7-6.52-5.26-9.91-3.66-7.99-3.95-14.94-4.09-19.55-.05-1.53-.09-3.05-.09-4.55,0-5.46.61-10.72,3.95-15.82,1.5-2.3,4.43-6.69,9.43-8.02.38-.1.79-.2,1.58-.2,1.85,0,5.72.6,14.65,3.4,4.18,1.31,6.51,2.16,7.99,2.7.74.27,1.27.46,1.73.59.46.13.86.2,1.28.2.26,0,.52-.02.81-.06,2.15-.3,3.81-1.24,5.15-2.48,2.02-1.85,3.39-4.31,5.07-6.45,1.68-2.14,3.58-3.94,6.64-4.68.81-.19,1.53-.27,2.19-.27,1.41,0,2.6.35,3.94.74,1.33.38,2.8.79,4.65.79,1.1,0,2.34-.14,3.77-.51,1.49-.38,2.32-.8,3.58-1.55,1.27-.75,3.07-1.87,6.75-3.79,6.33-3.3,9.47-4.91,12.27-5.41.69-.13,2.46-.45,4.75-.45,3,0,6.85.56,10.23,2.8,2.72,1.81,3.69,3.68,4.63,5.51.47.91.91,1.81,1.57,2.64.66.83,1.53,1.56,2.77,2.1,1.04.45,2.04.65,3.01.65,2.25,0,4.22-.99,6.38-1.9,2.16-.92,4.51-1.79,7.52-1.79.51,0,1.04.03,1.6.08,5.44.54,12,3.91,14.93,10.19,1.03,2.2,1.69,4.89,1.69,7.6,0,2.5-.55,5.03-1.85,7.25-1.28,2.18-3.28,3.67-6.5,5.03-3.22,1.36-7.61,2.54-13.47,4.09-11.33,3-21.23,4.23-25.57,4.7-5.21.57-7.76.64-9.55.72-1.79.08-2.89.19-4.91.82-5.18,1.59-8.14,3.91-10.82,6.31-2.69,2.4-5.12,4.84-9.47,6.94-3.4,1.64-5.79,2.03-8.09,2.04-2.36,0-4.68-.45-7.78-.45-2.36,0-5.15.27-8.73,1.2-8.28,2.15-13.66,5.98-17.87,9.22-2.11,1.62-3.93,3.09-5.66,4.13-1.74,1.04-3.36,1.66-5.13,1.66-.68,0-1.38-.09-2.14-.29l-.17.65"/>
      <polyline class="cls-4" points="0 540.82 60.51 527.58 56.74 514.16 54.86 501.11 47.27 503.01 47.27 499.04 49.18 482.03 52.96 466.88 58.64 453.86 64.29 444.21 71.88 434.75 77.53 429.26 81.31 427.19 81.31 425.48 77.53 425.48 77.53 423.6 75.66 410.36 68.07 376.33 66.2 370.64 64.29 357.22 60.51 340.2 56.74 323.37 56.74 321.47 51.05 296.89 51.05 294.8 47.27 277.78 47.27 276.09 45.4 264.76 43.5 259.08 39.72 242.06 39.72 240.16 35.94 222.95 32.16 204.24 58.64 198.37 60.51 198.37 71.88 196.66 75.66 215.39 92.67 211.8 117.25 205.93 121.03 225.04 124.81 242.06 128.58 260.76 136.17 298.79 139.95 317.5 141.82 323.37 147.51 347.76 153.19 372.33 156.97 391.44 160.75 410.36 160.75 412.05 147.51 416.02 149.41 421.7 158.84 423.6 168.3 427.19 172.08 431.16 183.45 438.72 192.88 448.18 198.56 455.73 200.46 459.33 202.34 461.42 202.34 465.19 206.12 476.53 177.76 482.03 166.43 484.09 168.3 489.58 168.3 495.45 166.43 506.6 162.62 518.15 155.06 527.58 143.73 535.17 149.41 561.43 162.62 557.84 173.98 555.97 181.54 553.88 192.88 552.19 200.46 550.29 211.8 548.38 217.48 546.32 223.14 544.42 228.82 542.73 236.37 540.82 242.06 538.76 247.74 536.86 255.3 535.17 260.98 533.27 266.63 531.18 274.19 529.3 285.55 527.58 291.21 525.71 302.57 523.62 321.47 520.03 340.39 516.06 359.31 512.47 361.18 512.47 372.55 510.57 378.2 508.69 380.1 508.69 399.86 505.1 404.68 527.58 406.58 538.76 387.66 542.73 387.66 544.42 397.12 586.04 376.33 590 308.25 605.12 296.89 607.02 289.33 608.71 278 610.8 264.76 612.68 259.07 614.58 245.84 616.29 221.26 622.14 202.34 625.92 185.32 629.72 164.52 633.31 160.75 612.68 158.84 605.12 141.82 608.71 143.73 620.26 128.58 622.14 115.35 622.14 100.23 620.26 88.9 618.36 75.66 614.58 64.29 608.71 51.05 601.15 39.72 593.59 30.26 586.04 20.82 576.58 13.24 565.4 9.46 559.75 5.68 553.88 0 540.82"/>
      <polyline class="cls-4" points="531.39 7.59 569.2 0 671.34 480.12 635.4 487.89 637.3 495.26 593.62 504.91 591.9 504.91 488.08 11.18 529.51 1.72 531.39 7.59"/>
      <polyline class="cls-4" points="175.83 90.77 177.74 92.68 398.97 43.5 431.1 187.23 434.91 205.93 259.05 245.65 211.77 255.3 209.87 242.06 196.63 181.36 175.83 90.77"/>
      <path class="cls-1" d="m470.67,325.64l.32.18.31.2c5.66,4.2.93,12.69-5.62,10.09l-.33-.16-.32-.18c-5.91-3.83-1.73-12.61,4.97-10.42l.34.14.33.16"/>
      <path class="cls-1" d="m459.2,332.06h.18s.18,0,.18,0c3.5.37,3.63,5.22.15,5.77l-.18.02h-.18c-3.52-.14-3.95-4.99-.51-5.75l.18-.03.18-.02"/>
      <path class="cls-1" d="m460.44,327.96h-.14s-.14.01-.14.01c-2.64-.13-2.92-3.77-.34-4.32l.14-.02h.14c2.64-.04,3.16,3.57.61,4.28l-.13.03-.14.02"/>
      <path class="cls-1" d="m456.75,328.29h.1s.1-.02.1-.02c1.94-.02,2.32,2.62.45,3.15l-.1.02h-.1c-1.93.16-2.47-2.46-.65-3.1l.1-.03.1-.02"/>
      <path class="cls-1" d="m452.83,340.64l-.18.02h-.18c-3.52-.14-3.95-4.98-.51-5.75l.18-.03.18-.02c3.52-.08,4.26,4.73.87,5.71l-.18.04-.18.03"/>
      <path class="cls-1" d="m453,329.09l.13.05.12.06c2.33,1.25,1.04,4.65-1.53,4.05l-.13-.04-.13-.05c-2.4-1.1-1.33-4.58,1.27-4.14l.13.03.13.04"/>
      <path class="cls-1" d="m448.38,325.95l.09-.03c1.1-.28,2.12.63,1.98,1.74h0s-.02.1-.02.1h0c-.08.44-.34.81-.71,1.05l-.09.05-.09.04c-.48.23-1.08.2-1.53-.09l-.08-.06-.08-.06h0c-.92-.76-.72-2.25.42-2.72l.1-.03"/>
      <path class="cls-1" d="m447.38,331.72l.14.02.13.03c2.52.79,1.89,4.38-.75,4.27h-.13s-.14-.04-.14-.04c-2.57-.63-2.17-4.25.48-4.31h.14s.14.02.14.02"/>
      <path class="cls-1" d="m446.34,337.87l.1.03.09.03c1.76.8.98,3.36-.93,3.04l-.1-.02-.1-.03c-1.81-.7-1.19-3.29.74-3.09l.1.02.1.02"/>
      <path class="cls-1" d="m440.03,332.09l.18-.04.18-.03c3.51-.3,4.55,4.45,1.23,5.64l-.18.05-.18.04c-3.48.52-4.82-4.16-1.58-5.56l.17-.06.17-.05"/>
      <path class="cls-1" d="m437.92,317.15h0s.03,1.52.03,1.52h0s-.36,1.47-.36,1.47l-.73,1.33-.68-.5h0c2.57-3.59-.32-8.44-4.74-7.83l-.51.15-.67-1.11-.91-.87-.03-.02h0s-1.11-.61-1.11-.61h-.03s-1.26-.32-1.26-.32l-1.29.03-1.24.36-1.11.67-.9.93h0s-.62,1.13-.62,1.13l-.79-.31.73-1.33c2.28-3.07,6.8-3.16,9.2-.19l.39.65,1.51-.03,1.47.36,1.33.73,1.09,1.05.78,1.3.42,1.45"/>
      <path class="cls-1" d="m441.49,339.03l.13-.02h.14c2.64-.04,3.16,3.57.61,4.28l-.13.03-.14.02c-2.64.19-3.37-3.37-.88-4.24l.13-.04.13-.03"/>
      <path class="cls-1" d="m436.19,321.01l.68.5-1.05,1.09c-2.55,2.17-6.99,1.47-8.55-1.55h0s-1.51.03-1.51.03c-3.22-.36-5.47-3.24-5.13-6.4l.36-1.47.79.31-.31,1.25c-.34,3.25,2.43,5.92,5.67,5.44l.51-.15.67,1.1c1.72,2.13,4.82,2.48,6.96.77l.9-.93"/>
      <path class="cls-1" d="m436.19,321.01l-.9.93c-2.15,1.71-5.24,1.36-6.96-.77l-.67-1.1-.51.15c-10.51.01-4.6-15.12,3.12-7.99l.67,1.1.51-.15,1.29-.02,1.26.31,1.13.62.93.89.67,1.11.35,1.21.03,1.28-.31,1.25-.62,1.13h0s0,.05,0,.05"/>
      <path class="cls-1" d="m434.35,337.49h.18s.18-.01.18-.01c3.51.22,3.84,5.07.4,5.76l-.18.02h-.18c-3.52.01-4.15-4.8-.75-5.71l.18-.03.18-.02"/>
      <path class="cls-1" d="m436.13,331.26l.1.02.1.02c1.85.58,1.39,3.21-.55,3.13h-.1s-.1-.03-.1-.03c-1.88-.46-1.59-3.12.35-3.16h.1s.1.01.1.01"/>
      <polyline class="cls-1" points="429.83 310.6 428.5 309.87 434.29 312.62 432.82 312.26 431.31 312.29 430.92 311.64 429.83 310.6"/>
      <path class="cls-1" d="m430.62,335.71h-.14s-.14,0-.14,0c-2.63-.19-2.84-3.83-.25-4.32l.14-.02h.14c2.64.02,3.07,3.64.52,4.29l-.13.03-.14.02"/>
      <path class="cls-1" d="m429.09,328.02h-.1s-.1,0-.1,0c-1.93-.15-2.08-2.8-.18-3.17h.1s.1-.02.1-.02c1.93.02,2.25,2.67.38,3.15l-.1.02h-.1"/>
      <path class="cls-1" d="m426.07,334.82l.18-.02h.18c3.52-.02,4.15,4.8.76,5.71l-.18.03-.18.02c-3.51.23-4.44-4.55-1.11-5.67l.17-.05.18-.03"/>
      <path class="cls-1" d="m427.41,332.79h-.1s-.1,0-.1,0c-1.93-.14-2.08-2.81-.18-3.17h.1s.1-.02.1-.02c1.93.02,2.25,2.68.38,3.15l-.1.02h-.1"/>
      <path class="cls-1" d="m423.52,322.47h.1s.1.02.1.02c1.9.38,1.72,3.05-.21,3.17h-.1s-.1,0-.1,0c-1.92-.26-1.9-2.94.01-3.18h.1s.1,0,.1,0"/>
      <path class="cls-1" d="m422.96,328.08h.14s.14,0,.14,0c2.63.19,2.84,3.83.25,4.32l-.14.02h-.14c-2.64-.02-3.08-3.64-.52-4.29l.13-.03.14-.02"/>
      <path class="cls-1" d="m421.92,333.31l.1-.02h.1c1.93-.12,2.42,2.51.58,3.11l-.1.02-.1.02c-1.92.22-2.57-2.37-.77-3.08l.1-.03.1-.02"/>
      <path class="cls-1" d="m417.64,328.48h.18s.18,0,.18,0c3.49.44,3.52,5.3.03,5.77h-.18s-.18.01-.18.01c-3.51-.22-3.84-5.07-.4-5.76l.18-.02h.18"/>
      <path class="cls-1" d="m416.88,325.11h.1s.1,0,.1,0c1.93.14,2.08,2.81.18,3.17h-.1s-.1.02-.1.02c-1.94-.02-2.25-2.67-.38-3.15l.1-.02h.1"/>
      <path class="cls-1" d="m418.88,338.27h-.1s-.1,0-.1,0c-1.93-.14-2.08-2.81-.18-3.17h.1s.1-.02.1-.02c1.93.02,2.26,2.67.38,3.15l-.1.02h-.1"/>
      <path class="cls-1" d="m413.44,327.96l.4.13.35.23c1.07.94.51,2.67-.91,2.8l-.42-.02-.4-.13c-1.28-.63-1.18-2.45.15-2.94l.41-.09.42.02"/>
      <path class="cls-1" d="m411.13,322.53l.16.08.16.09c2.97,1.88.94,6.3-2.42,5.24l-.17-.07-.16-.08c-3.08-1.69-1.33-6.22,2.09-5.38l.17.06.17.06"/>
      <path class="cls-1" d="m413.3,332.26l.13.04.13.04c2.44.99,1.52,4.53-1.09,4.19l-.13-.03-.13-.03c-2.5-.84-1.8-4.42.83-4.25l.14.02.13.03"/>
      <path class="cls-1" d="m409.41,328.94l.13.03.13.04c2.44.99,1.52,4.53-1.09,4.19l-.13-.03-.13-.03c-2.5-.84-1.81-4.42.83-4.25l.13.02.13.03"/>
      <path class="cls-1" d="m404.72,323.82h-.1s-.1,0-.1,0c-1.92-.26-1.91-2.93.01-3.18h.1s.1,0,.1,0c1.93.13,2.08,2.81.19,3.17h-.1s-.1.02-.1.02"/>
      <path class="cls-1" d="m403.92,325.22l.13-.03.14-.02c2.62-.31,3.51,3.23,1.06,4.2l-.13.04-.13.03c-2.6.47-3.7-3-1.32-4.13l.13-.05.13-.04"/>
      <path class="cls-1" d="m405.17,330.78l.1.02.1.03c1.83.62,1.32,3.24-.61,3.12h-.1s-.1-.03-.1-.03c-1.87-.5-1.52-3.15.41-3.15h.1s.1.02.1.02"/>
      <path class="cls-1" d="m401.48,322.99l.1.02.1.03c1.83.62,1.32,3.23-.61,3.12h-.1s-.1-.03-.1-.03c-1.87-.5-1.52-3.15.41-3.15h.1s.1.02.1.02"/>
      <path class="cls-1" d="m399.97,328.62l.18.02.18.03c3.41.86,2.83,5.71-.69,5.73h-.18s-.18-.03-.18-.03c-3.45-.65-3.18-5.51.33-5.77h.18s.18,0,.18,0"/>
      <path class="cls-1" d="m393,319.4h.36s.36,0,.36,0c7,.65,7.36,10.37.43,11.54l-.36.04h-.36c-7.03-.2-8-9.87-1.15-11.48l.36-.06.36-.04"/>
      <path class="cls-1" d="m397.88,335.4h.14s.14,0,.14,0c2.62.3,2.68,3.95.07,4.33h-.13s-.14.01-.14.01c-2.63-.13-2.92-3.77-.34-4.32l.13-.02h.14"/>
      <path class="cls-1" d="m393.89,331.95l.13-.04.13-.03c2.61-.36,3.57,3.16,1.14,4.18l-.13.04-.13.04c-2.59.52-3.77-2.92-1.4-4.1l.13-.05.13-.04"/>
      <path class="cls-1" d="m392.42,336.88l.1-.02h.1c1.93-.12,2.42,2.51.58,3.11l-.1.02-.1.02c-1.92.22-2.57-2.37-.77-3.08l.1-.03.1-.03"/>
      <path class="cls-1" d="m389.6,355.58l-.98,1.14c-2.84,2.55-7.29,1.73-9.03-1.64l-.02-.04.75-.38h0s.73,1.06.73,1.06c2.58,2.82,7.17,1.85,8.39-1.78l.1-.53,1.29-.1,1.22-.43,1.06-.73.84-.98.56-1.17.24-1.27-.1-1.27v-.02s-.43-1.22-.43-1.22h0s-.73-1.07-.73-1.07l.61-.55.02-.02.86,1.25c1.72,3.41-.22,7.49-3.97,8.31l-.76.06-.65,1.37"/>
      <path class="cls-1" d="m388.5,331.35l.18-.02h.18c3.51.14,3.95,4.98.52,5.75l-.18.03-.18.02c-3.52.08-4.25-4.73-.88-5.71l.18-.04.18-.03"/>
      <polyline class="cls-1" points="393.48 345.17 394.22 346.23 393.48 345.17 393.48 345.17"/>
      <path class="cls-1" d="m386.79,331.51h-.1s-.1,0-.1,0c-1.92-.22-1.96-2.9-.05-3.18h.1s.1,0,.1,0c1.93.1,2.14,2.76.25,3.17h-.1s-.1.02-.1.02"/>
      <path class="cls-1" d="m385.14,323.9l.09-.03.1-.03c1.9-.38,2.76,2.15,1.03,3.01l-.09.04-.1.03c-1.87.5-2.89-1.97-1.22-2.93l.09-.04.09-.04"/>
      <path class="cls-1" d="m383.58,339.45l-.18.02h-.18c-3.51-.14-3.95-4.98-.52-5.75l.18-.03.18-.02c3.52-.08,4.25,4.72.88,5.71l-.18.04-.18.03"/>
      <path class="cls-1" d="m382.68,327.75l.13.05.12.06c2.32,1.25,1.05,4.65-1.52,4.05l-.13-.04-.13-.05c-2.4-1.1-1.33-4.58,1.27-4.14l.13.03.13.04"/>
      <path class="cls-1" d="m378.03,340l.09-.03.1-.03c1.89-.39,2.76,2.15,1.03,3l-.09.04-.09.03c-1.87.51-2.89-1.97-1.22-2.93l.09-.04.09-.04"/>
      <path class="cls-1" d="m376.76,334.02h.14s.13.04.13.04c2.56.63,2.17,4.25-.47,4.31h-.14s-.14-.02-.14-.02c-2.6-.47-2.43-4.11.2-4.33h.13s.14,0,.14,0"/>
      <path class="cls-1" d="m380.31,354.67l-.42-1.18c-.56-2.68,1.14-5.3,3.82-5.87l1.29-.1.1-.53c4.68-9.37,15.57,2.63,5.73,6.33l-1.29.1-.1.53c-1.22,3.63-5.81,4.6-8.39,1.78l-.73-1.07h0"/>
      <path class="cls-1" d="m379.57,355.1v-.04c-1.71-3.38.24-7.46,3.97-8.26l.75-.06.65-1.37c1.75-2.69,5.33-3.45,8.03-1.7l1.12.96-.61.55h0s0,.05,0,.05l-.98-.84c-2.75-1.77-6.39-.48-7.41,2.62l-.1.53-1.29.1c-2.68.58-4.38,3.19-3.82,5.87l.42,1.18-.75.38h0s0,.05,0,.05"/>
      <path class="cls-1" d="m375.48,343.06l.13-.04.13-.03c2.61-.36,3.57,3.15,1.14,4.18l-.13.04-.13.03c-2.59.53-3.76-2.92-1.4-4.1l.13-.05.13-.04"/>
      <path class="cls-1" d="m371.1,337.64l.18-.04.18-.03c3.5-.3,4.54,4.45,1.23,5.64l-.18.05-.18.04c-3.48.52-4.81-4.16-1.58-5.55l.17-.06.18-.05"/>
      <path class="cls-1" d="m373.06,347.06h.1s.1,0,.1,0c1.92.22,1.97,2.89.05,3.18h-.1s-.1,0-.1,0c-1.93-.1-2.14-2.76-.25-3.17h.1s.1-.02.1-.02"/>
      <path class="cls-1" d="m369.86,350.21h.18s.18.02.18.02c3.46.58,3.3,5.44-.21,5.77h-.18s-.18,0-.18,0c-3.5-.36-3.63-5.22-.15-5.77l.18-.02h.18"/>
      <path class="cls-1" d="m370.03,343.79l.09.05.08.06c1.5,1.22.12,3.49-1.65,2.71l-.09-.05-.09-.05c-1.58-1.12-.33-3.48,1.48-2.81l.09.04.09.05"/>
      <path class="cls-1" d="m365.36,345.66l.13-.03.14-.02c2.63-.19,3.37,3.37.88,4.24l-.13.04-.13.03c-2.61.37-3.57-3.16-1.14-4.18l.13-.05.13-.03"/>
      <path class="cls-1" d="m362.08,335.43h0s.07,1.51.07,1.51l-.32,1.48-.03.06-.67,1.29-1.02,1.12-.55-.65.87-.96c2.15-3.15.17-7.41-3.66-7.76l-.54.03-.39-1.23c-1.4-2.94-5.15-3.78-7.68-1.68l-.87.96-.7-.48,1.02-1.12c2.93-2.46,7.36-1.49,8.99,1.96l.23.72,1.48.32,1.35.69,1.12,1.02.82,1.27.46,1.44"/>
      <path class="cls-1" d="m362.63,350.2l.1-.03.1-.03c1.9-.39,2.76,2.15,1.03,3l-.09.04-.1.03c-1.87.51-2.89-1.97-1.22-2.93l.09-.04.09-.04"/>
      <path class="cls-1" d="m360.49,343.75l.1-.03.1-.02c1.92-.27,2.62,2.31.84,3.06l-.1.03-.1.03c-1.89.38-2.76-2.15-1.03-3.01l.09-.04.1-.03"/>
      <path class="cls-1" d="m359.58,340.29l-1.09.7c-2.48,1.16-5.42.1-6.59-2.37l-.39-1.23-.53.02c-10.23-2.43-.96-15.78,4.89-7.04l.39,1.23.53-.03,1.26.28,1.15.59.96.87.7,1.09.39,1.2.06,1.27-.28,1.27-.59,1.15-.87.96h0s0,.05,0,.05"/>
      <path class="cls-1" d="m361.96,358.77h-.13s-.14.01-.14.01c-2.63-.14-2.92-3.77-.34-4.32l.13-.02h.14c2.64-.04,3.15,3.57.61,4.28l-.13.03-.14.02"/>
      <polyline class="cls-1" points="355.81 328.69 354.69 327.67 359.68 331.7 358.34 331.01 356.86 330.69 356.63 329.96 355.81 328.69"/>
      <path class="cls-1" d="m358.43,348.94l.16.08.16.09c2.89,2.01.67,6.33-2.64,5.13l-.17-.07-.16-.08c-3.01-1.81-1.06-6.27,2.31-5.29l.17.06.17.07"/>
      <path class="cls-1" d="m350.98,337.41l.53-.02.39,1.23c1.17,2.47,4.12,3.53,6.59,2.37l1.09-.7.55.65-1.27.82c-3.02,1.51-7.11-.2-7.95-3.5h0s-1.48-.33-1.48-.33c-3.03-1.09-4.57-4.41-3.5-7.42l.69-1.35.7.48-.59,1.15c-.92,2.58.41,5.4,2.98,6.34l1.27.27"/>
      <path class="cls-1" d="m352.79,347.43h-.1s-.1,0-.1,0c-1.92-.22-1.97-2.89-.05-3.18h.1s.1,0,.1,0c1.93.1,2.14,2.76.25,3.17h-.1s-.1.02-.1.02"/>
      <path class="cls-1" d="m354.35,355.26l.13-.03.14-.02c2.63-.19,3.37,3.37.88,4.24l-.13.04-.13.03c-2.61.36-3.57-3.15-1.14-4.18l.13-.05.13-.04"/>
      <path class="cls-1" d="m350.13,343.44l.04.18.03.18c.3,3.51-4.44,4.55-5.63,1.23l-.05-.17-.04-.18c-.52-3.48,4.15-4.82,5.54-1.59l.06.17.05.18"/>
      <path class="cls-1" d="m353.07,360.19v.03c.11.54.06,1.07-.13,1.58h0s0,0,0,0l-.07.17c-.73,1.59-2.67,2.18-4.16,1.26l-.15-.1h0s-.15-.11-.15-.11c-3.73-3.61,2.99-7.95,4.67-2.83h0"/>
      <path class="cls-1" d="m352.52,354.5l.02.1v.1c.16,1.93-2.45,2.48-3.09.65l-.03-.1-.02-.1c-.26-1.92,2.31-2.63,3.06-.84l.03.1.03.1"/>
      <path class="cls-1" d="m351.78,348.9l.06.12.05.13c.84,2.5-2.42,4.11-3.88,1.91l-.07-.12-.06-.13c-1-2.44,2.16-4.25,3.75-2.15l.08.11.07.12"/>
      <polyline class="cls-1" points="346.96 336.22 348.08 337.24 346.96 336.23 346.14 334.95 346.14 334.95 346.96 336.22"/>
      <path class="cls-1" d="m344.42,337.28h.1s.1-.02.1-.02c1.93-.02,2.31,2.63.45,3.14l-.1.02-.1.02c-1.93.14-2.47-2.48-.65-3.11l.1-.03.1-.02"/>
      <polyline class="cls-1" points="347.8 362.35 347.83 362.4 347.8 362.35 347.7 362.2 347.7 362.19 347.8 362.35"/>
      <path class="cls-1" d="m348.22,355.06l.05.13.04.13c.69,2.55-2.67,3.95-3.99,1.66l-.06-.12-.05-.13c-.84-2.5,2.42-4.11,3.88-1.91l.07.12.06.12"/>
      <path class="cls-1" d="m346.15,349.98l.04.13.03.13c.36,2.62-3.14,3.58-4.17,1.15l-.04-.13-.03-.13c-.53-2.59,2.92-3.77,4.09-1.4l.05.13.04.13"/>
      <path class="cls-1" d="m344.17,343.08l.03.14.02.13c.2,2.64-3.37,3.38-4.23.88l-.04-.13-.03-.13c-.36-2.62,3.14-3.58,4.17-1.15l.04.13.04.13"/>
      <path class="cls-5" d="m353.42,360.2h0c-.03-.18-.21-.31-.39-.27-.18.03-.3.21-.27.39h0c.03.18.21.31.39.27.18-.03.3-.21.27-.39"/>
      <polyline class="cls-3" points="565.43 654.65 551.87 641.1 538.32 654.65 565.43 654.65"/>
    </g>
  </g>
</svg>