<?xml version="1.0" encoding="UTF-8"?>
<svg id="Ebene_2" data-name="Ebene 2" xmlns="http://www.w3.org/2000/svg" viewBox="0 0 683.99 442.1">
  <defs>
    <style>
      .cls-1 {
        fill: #868686;
        font-size: 12.73px;
      }

      .cls-1, .cls-2 {
        font-family: MyriadPro-Regular, 'Myriad Pro';
      }

      .cls-3 {
        letter-spacing: .02em;
      }

      .cls-4 {
        fill: #f3f2f2;
      }

      .cls-5 {
        fill: #f7f7f6;
      }

      .cls-6 {
        fill: #f8f8f8;
      }

      .cls-7 {
        fill: #eeeeef;
      }

      .cls-8 {
        fill: #ebebeb;
      }

      .cls-9 {
        fill: #f0f0f0;
      }

      .cls-10 {
        fill: #e9e9ea;
      }

      .cls-11 {
        fill: #f4f4f4;
      }

      .cls-12 {
        fill: #fcfcfb;
      }

      .cls-13 {
        fill: #e7e7e7;
      }

      .cls-14 {
        fill: #e3e2e2;
      }

      .cls-15 {
        fill: #ededed;
      }

      .cls-16 {
        fill: #fff;
      }

      .cls-17 {
        fill: #e8e8e9;
      }

      .cls-18 {
        fill: #fbfbfa;
      }

      .cls-19 {
        fill: #efeff0;
      }

      .cls-20 {
        fill: #e4e4e3;
      }

      .cls-21 {
        fill: #fdffff;
      }

      .cls-22 {
        fill: #919191;
      }

      .cls-23 {
        fill: #7f8080;
      }

      .cls-24 {
        fill: #747474;
      }

      .cls-25 {
        fill: #969697;
      }

      .cls-26 {
        fill: #6c6c6c;
      }

      .cls-27 {
        fill: #7c7c7c;
      }

      .cls-28 {
        fill: #a0a09f;
      }

      .cls-29 {
        fill: #b4b4b4;
      }

      .cls-30 {
        fill: #8a8a8a;
      }

      .cls-31 {
        fill: #b7b7b7;
      }

      .cls-32 {
        fill: #9d9c9c;
      }

      .cls-33 {
        fill: #9e9d9d;
      }

      .cls-34 {
        fill: #b9b9b9;
      }

      .cls-35 {
        fill: #909090;
      }

      .cls-36 {
        fill: #bababa;
      }

      .cls-37 {
        fill: #8c8c8c;
      }

      .cls-38 {
        fill: #858686;
      }

      .cls-39 {
        fill: #cecece;
      }

      .cls-40 {
        fill: #a9a9aa;
      }

      .cls-41 {
        fill: #a6a6a6;
      }

      .cls-42 {
        fill: #b1b1b1;
      }

      .cls-43 {
        fill: #bcbcbc;
      }

      .cls-44 {
        fill: #a7a7a6;
      }

      .cls-45 {
        fill: #b0b0af;
      }

      .cls-46 {
        fill: #aeadad;
      }

      .cls-47 {
        fill: #d8d9d9;
      }

      .cls-48 {
        fill: #b2b2b2;
      }

      .cls-49 {
        fill: #bfbfbf;
      }

      .cls-50 {
        fill: #cccbcb;
      }

      .cls-51 {
        fill: #c9c8c8;
      }

      .cls-52 {
        fill: #d0d0d1;
      }

      .cls-53 {
        fill: #ddd;
      }

      .cls-54 {
        fill: #cbcacb;
      }

      .cls-55 {
        fill: #c3c2c3;
      }

      .cls-56 {
        fill: #c4c4c4;
      }

      .cls-57 {
        fill: #dcdcdc;
      }

      .cls-58 {
        fill: #dbdbdb;
      }

      .cls-59 {
        fill: #d3d2d2;
      }

      .cls-60 {
        fill: #d3d3d4;
      }

      .cls-61 {
        fill: #d7d6d6;
      }

      .cls-62 {
        fill: #c6c6c6;
      }

      .cls-63 {
        fill: #e1e1e1;
      }

      .cls-64 {
        fill: #dfdfdf;
      }

      .cls-65 {
        fill: #a3a3a2;
      }

      .cls-66 {
        fill: #9b9b9a;
      }

      .cls-67 {
        fill: #6f6e6e;
      }

      .cls-68 {
        fill: #727272;
      }

      .cls-69 {
        fill: #959595;
      }

      .cls-70 {
        fill: #464b4f;
      }

      .cls-71 {
        fill: #868585;
      }

      .cls-72 {
        fill: #888;
      }

      .cls-73 {
        fill: gray;
      }

      .cls-74 {
        fill: #262526;
      }

      .cls-75 {
        fill: #3d3c3d;
      }

      .cls-76 {
        fill: #3c3c3b;
      }

      .cls-77 {
        fill: #838382;
      }

      .cls-78 {
        fill: #767676;
      }

      .cls-79 {
        fill: #79797a;
      }

      .cls-80 {
        fill: #828282;
      }

      .cls-81 {
        letter-spacing: 0em;
      }

      .cls-82 {
        letter-spacing: -.07em;
      }

      .cls-83 {
        letter-spacing: -.07em;
      }

      .cls-84 {
        letter-spacing: -.04em;
      }

      .cls-85 {
        letter-spacing: -.01em;
      }

      .cls-86 {
        letter-spacing: -.01em;
      }

      .cls-87 {
        letter-spacing: -.01em;
      }

      .cls-2 {
        fill: #1d1d1b;
        font-size: 12px;
      }

      .cls-88 {
        letter-spacing: .04em;
      }
    </style>
  </defs>
  <g id="Ebene_1-2" data-name="Ebene 1">
    <g>
      <polyline class="cls-4" points="182.99 358.01 178.63 359.57 178.63 117.3 182.99 115.75 182.99 358.01"/>
      <polyline class="cls-15" points="187.16 356.3 182.99 358.01 182.99 115.75 187.16 114.03 187.16 356.3"/>
      <polyline class="cls-13" points="191.15 354.43 187.16 356.3 187.16 114.03 191.15 112.17 191.15 354.43"/>
      <polyline class="cls-64" points="194.92 352.43 191.15 354.43 191.15 112.17 194.92 110.16 194.92 352.43"/>
      <polyline class="cls-47" points="198.47 350.29 194.92 352.43 194.92 110.16 198.47 108.03 198.47 350.29"/>
      <polyline class="cls-52" points="201.78 348.03 198.47 350.29 198.47 108.03 201.78 105.77 201.78 348.03"/>
      <polyline class="cls-51" points="204.83 345.66 201.78 348.03 201.78 105.77 204.83 103.39 204.83 345.66"/>
      <polyline class="cls-49" points="207.62 343.18 204.83 345.66 204.83 103.39 207.62 100.91 207.62 343.18"/>
      <polyline class="cls-31" points="210.14 340.6 207.62 343.18 207.62 100.91 210.14 98.33 210.14 340.6"/>
      <polyline class="cls-46" points="212.37 337.93 210.14 340.6 210.14 98.33 212.37 95.67 212.37 337.93"/>
      <polyline class="cls-65" points="214.31 335.19 212.37 337.93 212.37 95.67 214.31 92.93 214.31 335.19"/>
      <polyline class="cls-66" points="215.94 332.39 214.31 335.19 214.31 92.93 215.94 90.12 215.94 332.39"/>
      <polyline class="cls-35" points="217.27 329.53 215.94 332.39 215.94 90.12 217.27 87.26 217.27 329.53"/>
      <polyline class="cls-38" points="218.28 326.63 217.27 329.53 217.27 87.26 218.28 84.36 218.28 326.63"/>
      <polyline class="cls-27" points="218.98 323.7 218.28 326.63 218.28 84.36 218.98 81.43 218.98 323.7"/>
      <polyline class="cls-68" points="219.36 320.74 218.98 323.7 218.98 81.43 219.36 78.48 219.36 320.74"/>
      <polyline class="cls-68" points="219.41 317.79 219.36 320.74 219.36 78.48 219.41 75.52 219.41 317.79"/>
      <polyline class="cls-67" points="56.52 322.71 56.25 319.76 56.25 77.49 56.52 80.45 56.52 322.71"/>
      <polyline class="cls-79" points="57.11 325.65 56.52 322.71 56.52 80.45 57.11 83.39 57.11 325.65"/>
      <polyline class="cls-80" points="58.02 328.57 57.11 325.65 57.11 83.39 58.02 86.3 58.02 328.57"/>
      <polyline class="cls-37" points="59.24 331.44 58.02 328.57 58.02 86.3 59.24 89.18 59.24 331.44"/>
      <polyline class="cls-25" points="60.77 334.26 59.24 331.44 59.24 89.18 60.77 92 60.77 334.26"/>
      <polyline class="cls-28" points="62.61 337.03 60.77 334.26 60.77 92 62.61 94.76 62.61 337.03"/>
      <polyline class="cls-40" points="64.74 339.72 62.61 337.03 62.61 94.76 64.74 97.45 64.74 339.72"/>
      <polyline class="cls-29" points="67.17 342.33 64.74 339.72 64.74 97.45 67.17 100.06 67.17 342.33"/>
      <polyline class="cls-43" points="69.87 344.84 67.17 342.33 67.17 100.06 69.87 102.58 69.87 344.84"/>
      <polyline class="cls-62" points="72.84 347.25 69.87 344.84 69.87 102.58 72.84 104.99 72.84 347.25"/>
      <polyline class="cls-39" points="76.06 349.55 72.84 347.25 72.84 104.99 76.06 107.29 76.06 349.55"/>
      <polyline class="cls-61" points="79.53 351.73 76.06 349.55 76.06 107.29 79.53 109.47 79.53 351.73"/>
      <polyline class="cls-53" points="83.23 353.78 79.53 351.73 79.53 109.47 83.23 111.52 83.23 353.78"/>
      <polyline class="cls-20" points="87.15 355.69 83.23 353.78 83.23 111.52 87.15 113.43 87.15 355.69"/>
      <polyline class="cls-8" points="91.26 357.46 87.15 355.69 87.15 113.43 91.26 115.19 91.26 357.46"/>
      <polyline class="cls-9" points="95.56 359.07 91.26 357.46 91.26 115.19 95.56 116.8 95.56 359.07"/>
      <polyline class="cls-5" points="100.03 360.52 95.56 359.07 95.56 116.8 100.03 118.26 100.03 360.52"/>
      <polyline class="cls-12" points="104.64 361.81 100.03 360.52 100.03 118.26 104.64 119.54 104.64 361.81"/>
      <polyline class="cls-16" points="109.39 362.93 104.64 361.81 104.64 119.54 109.39 120.66 109.39 362.93"/>
      <polyline class="cls-16" points="114.25 363.87 109.39 362.93 109.39 120.66 114.25 121.61 114.25 363.87"/>
      <polyline class="cls-16" points="119.2 364.64 114.25 363.87 114.25 121.61 119.2 122.37 119.2 364.64"/>
      <polyline class="cls-16" points="124.22 365.22 119.2 364.64 119.2 122.37 124.22 122.96 124.22 365.22"/>
      <polyline class="cls-16" points="129.3 365.62 124.22 365.22 124.22 122.96 129.3 123.36 129.3 365.62"/>
      <polyline class="cls-16" points="134.41 365.84 129.3 365.62 129.3 123.36 134.41 123.57 134.41 365.84"/>
      <polyline class="cls-16" points="139.54 365.87 134.41 365.84 134.41 123.57 139.54 123.61 139.54 365.87"/>
      <polyline class="cls-16" points="144.66 365.72 139.54 365.87 139.54 123.61 144.66 123.45 144.66 365.72"/>
      <polyline class="cls-16" points="149.75 365.38 144.66 365.72 144.66 123.45 149.75 123.11 149.75 365.38"/>
      <polyline class="cls-16" points="154.8 364.85 149.75 365.38 149.75 123.11 154.8 122.59 154.8 364.85"/>
      <polyline class="cls-16" points="159.77 364.15 154.8 364.85 154.8 122.59 159.77 121.88 159.77 364.15"/>
      <polyline class="cls-16" points="164.66 363.26 159.77 364.15 159.77 121.88 164.66 121 164.66 363.26"/>
      <polyline class="cls-16" points="169.45 362.2 164.66 363.26 164.66 121 169.45 119.93 169.45 362.2"/>
      <polyline class="cls-21" points="174.11 360.97 169.45 362.2 169.45 119.93 174.11 118.7 174.11 360.97"/>
      <polyline class="cls-6" points="178.63 359.57 174.11 360.97 174.11 118.7 178.63 117.3 178.63 359.57"/>
      <path class="cls-58" d="m178.63,117.3l-4.52,1.4-4.66,1.23-4.79,1.06c-29.81,6.16-70.87,1.98-94.8-18.42l-2.7-2.51-2.42-2.61c-20.52-24.63-.69-48.18,23.75-58.47l4.18-1.72,4.36-1.56,4.52-1.4,4.66-1.23c30.14-7.43,71.14-4.12,96.61,14.95l2.97,2.41,2.7,2.51c22.34,22.88,7.48,47.18-17.35,59.22l-3.98,1.86-4.18,1.71-4.36,1.56"/>
      <polyline class="cls-70" points="453.07 377.28 452.88 381.32 452.88 375.26 453.07 371.23 453.07 377.28"/>
      <polyline class="cls-24" points="452.88 381.32 452.25 385.34 452.25 379.28 452.88 375.26 452.88 381.32"/>
      <polyline class="cls-23" points="452.25 385.34 451.19 389.33 451.19 383.27 452.25 379.28 452.25 385.34"/>
      <polyline class="cls-72" points="451.19 389.33 449.69 393.27 449.69 387.21 451.19 383.27 451.19 389.33"/>
      <polyline class="cls-22" points="449.69 393.27 447.77 397.15 447.77 391.09 449.69 387.21 449.69 393.27"/>
      <polyline class="cls-32" points="447.77 397.15 445.43 400.95 445.43 394.89 447.77 391.09 447.77 397.15"/>
      <polyline class="cls-41" points="445.43 400.95 442.68 404.66 442.68 398.6 445.43 394.89 445.43 400.95"/>
      <polyline class="cls-45" points="442.68 404.66 439.54 408.26 439.54 402.21 442.68 398.6 442.68 404.66"/>
      <polyline class="cls-34" points="439.54 408.26 436 411.75 436 405.69 439.54 402.21 439.54 408.26"/>
      <polyline class="cls-55" points="436 411.75 432.1 415.09 432.1 409.04 436 405.69 436 411.75"/>
      <polyline class="cls-54" points="432.1 415.09 427.84 418.29 427.84 412.24 432.1 409.04 432.1 415.09"/>
      <polyline class="cls-59" points="427.84 418.29 423.24 421.33 423.24 415.28 427.84 412.24 427.84 418.29"/>
      <polyline class="cls-58" points="423.24 421.33 418.32 424.2 418.32 418.14 423.24 415.28 423.24 421.33"/>
      <polyline class="cls-63" points="418.32 424.2 413.09 426.88 413.09 420.82 418.32 418.14 418.32 424.2"/>
      <polyline class="cls-17" points="413.09 426.88 407.59 429.37 407.59 423.31 413.09 420.82 413.09 426.88"/>
      <polyline class="cls-7" points="407.59 429.37 401.82 431.65 401.82 425.59 407.59 423.31 407.59 429.37"/>
      <polyline class="cls-11" points="401.82 431.65 395.82 433.72 395.82 427.66 401.82 425.59 401.82 431.65"/>
      <polyline class="cls-18" points="395.82 433.72 389.61 435.57 389.61 429.51 395.82 427.66 395.82 433.72"/>
      <polyline class="cls-16" points="389.61 435.57 383.2 437.18 383.2 431.13 389.61 429.51 389.61 435.57"/>
      <polyline class="cls-16" points="383.2 437.18 376.64 438.57 376.64 432.51 383.2 431.13 383.2 437.18"/>
      <polyline class="cls-16" points="376.64 438.57 369.93 439.71 369.93 433.65 376.64 432.51 376.64 438.57"/>
      <polyline class="cls-16" points="369.93 439.71 363.12 440.61 363.12 434.55 369.93 433.65 369.93 439.71"/>
      <polyline class="cls-16" points="363.12 440.61 356.22 441.25 356.22 435.2 363.12 434.55 363.12 440.61"/>
      <polyline class="cls-16" points="356.22 441.25 349.26 441.65 349.26 435.59 356.22 435.2 356.22 441.25"/>
      <polyline class="cls-16" points="349.26 441.65 342.28 441.8 342.28 435.74 349.26 435.59 349.26 441.65"/>
      <polyline class="cls-16" points="342.28 441.8 335.29 441.69 335.29 435.63 342.28 435.74 342.28 441.8"/>
      <polyline class="cls-16" points="335.29 441.69 328.33 441.32 328.33 435.27 335.29 435.63 335.29 441.69"/>
      <polyline class="cls-16" points="328.33 441.32 321.42 440.71 321.42 434.65 328.33 435.27 328.33 441.32"/>
      <polyline class="cls-16" points="321.42 440.71 314.59 439.84 314.59 433.79 321.42 434.65 321.42 440.71"/>
      <polyline class="cls-16" points="314.59 439.84 307.87 438.73 307.87 432.68 314.59 433.79 314.59 439.84"/>
      <polyline class="cls-16" points="307.87 438.73 301.28 437.38 301.28 431.33 307.87 432.68 307.87 438.73"/>
      <polyline class="cls-16" points="301.28 437.38 294.86 435.8 294.86 429.74 301.28 431.33 301.28 437.38"/>
      <polyline class="cls-18" points="294.86 435.8 288.61 433.98 288.61 427.92 294.86 429.74 294.86 435.8"/>
      <polyline class="cls-11" points="288.61 433.98 282.58 431.94 282.58 425.88 288.61 427.92 288.61 433.98"/>
      <polyline class="cls-19" points="282.58 431.94 276.78 429.69 276.78 423.63 282.58 425.88 282.58 431.94"/>
      <polyline class="cls-10" points="276.78 429.69 271.24 427.23 271.24 421.17 276.78 423.63 276.78 429.69"/>
      <polyline class="cls-14" points="271.24 427.23 265.98 424.57 265.98 418.51 271.24 421.17 271.24 427.23"/>
      <polyline class="cls-57" points="265.98 424.57 261.02 421.73 261.02 415.67 265.98 418.51 265.98 424.57"/>
      <polyline class="cls-60" points="261.02 421.73 256.37 418.71 256.37 412.66 261.02 415.67 261.02 421.73"/>
      <polyline class="cls-50" points="256.37 418.71 252.06 415.53 252.06 409.48 256.37 412.66 256.37 418.71"/>
      <polyline class="cls-56" points="252.06 415.53 248.11 412.21 248.11 406.15 252.06 409.48 252.06 415.53"/>
      <polyline class="cls-36" points="248.11 412.21 244.53 408.74 244.53 402.68 248.11 406.15 248.11 412.21"/>
      <polyline class="cls-48" points="244.53 408.74 241.33 405.15 241.33 399.1 244.53 402.68 244.53 408.74"/>
      <polyline class="cls-44" points="241.33 405.15 238.53 401.46 238.53 395.4 241.33 399.1 241.33 405.15"/>
      <polyline class="cls-33" points="238.53 401.46 236.13 397.66 236.13 391.61 238.53 395.4 238.53 401.46"/>
      <polyline class="cls-69" points="236.13 397.66 234.15 393.79 234.15 387.74 236.13 391.61 236.13 397.66"/>
      <polyline class="cls-30" points="234.15 393.79 232.6 389.86 232.6 383.8 234.15 387.74 234.15 393.79"/>
      <polyline class="cls-73" points="232.6 389.86 231.47 385.88 231.47 379.82 232.6 383.8 232.6 389.86"/>
      <polyline class="cls-78" points="231.47 385.88 230.79 381.86 230.79 375.8 231.47 379.82 231.47 385.88"/>
      <polyline class="cls-26" points="230.79 381.86 230.54 377.83 230.54 371.77 230.79 375.8 230.79 381.86"/>
      <path class="cls-58" d="m362.19,308.35l6.83.86,6.72,1.11,6.59,1.35c30.72,6.3,77.09,29.44,69.92,67.61l-1.06,3.99-1.5,3.94c-17.42,37.66-77.04,50.26-114.4,48.42l-6.96-.36-6.91-.61-6.83-.86-6.72-1.11c-31.2-5.15-80.14-26.52-77.14-64.94l.63-4.02,1.07-3.99c13.51-38.74,72.66-53.01,108.91-52.47l6.99.11,6.96.36,6.91.61"/>
      <polyline points="178.73 359.86 183.09 358.3 182.88 357.72 178.52 359.28"/>
      <polyline points="183.1 358.3 187.28 356.58 187.05 356.01 182.87 357.72"/>
      <polyline points="187.29 356.58 191.28 354.71 191.02 354.15 187.03 356.02"/>
      <polyline points="191.29 354.71 195.07 352.7 194.78 352.16 191 354.16"/>
      <polyline points="195.08 352.7 198.63 350.56 198.31 350.03 194.76 352.16"/>
      <polyline points="198.64 350.55 201.95 348.29 201.6 347.78 198.29 350.04"/>
      <polyline points="201.97 348.28 205.02 345.9 204.64 345.41 201.59 347.79"/>
      <polyline points="205.04 345.89 207.83 343.41 207.42 342.94 204.63 345.43"/>
      <polyline points="207.85 343.39 210.36 340.81 209.92 340.38 207.4 342.96"/>
      <polyline points="210.38 340.8 212.61 338.13 212.13 337.73 209.9 340.4"/>
      <polyline points="212.63 338.11 214.56 335.37 214.06 335.01 212.12 337.75"/>
      <polyline points="214.58 335.35 216.21 332.54 215.68 332.23 214.04 335.04"/>
      <polyline points="216.23 332.52 217.55 329.66 216.99 329.4 215.66 332.26"/>
      <polyline points="217.56 329.63 218.58 326.73 217.99 326.53 216.98 329.43"/>
      <polyline points="218.59 326.7 219.28 323.77 218.68 323.62 217.98 326.56"/>
      <polyline points="219.29 323.74 219.66 320.78 219.05 320.71 218.67 323.66"/>
      <polyline points="219.66 320.75 219.72 317.79 219.1 317.78 219.05 320.74"/>
      <polyline points="55.94 319.79 56.21 322.74 56.83 322.69 56.56 319.73"/>
      <polyline points="56.22 322.77 56.81 325.71 57.41 325.59 56.82 322.65"/>
      <polyline points="56.81 325.75 57.72 328.66 58.31 328.47 57.41 325.56"/>
      <polyline points="57.73 328.69 58.95 331.56 59.53 331.32 58.3 328.45"/>
      <polyline points="58.97 331.59 60.5 334.41 61.05 334.12 59.51 331.29"/>
      <polyline points="60.51 334.44 62.35 337.2 62.87 336.86 61.03 334.09"/>
      <polyline points="62.37 337.22 64.5 339.91 64.99 339.53 62.85 336.84"/>
      <polyline points="64.52 339.93 66.94 342.54 67.39 342.12 64.97 339.51"/>
      <polyline points="66.95 342.55 69.66 345.07 70.08 344.62 67.38 342.1"/>
      <polyline points="69.67 345.08 72.64 347.49 73.03 347.01 70.06 344.6"/>
      <polyline points="72.66 347.51 75.88 349.81 76.24 349.3 73.02 347"/>
      <polyline points="75.9 349.82 79.37 352 79.7 351.47 76.23 349.29"/>
      <polyline points="79.38 352 83.08 354.05 83.38 353.51 79.68 351.46"/>
      <polyline points="83.1 354.06 87.01 355.97 87.28 355.41 83.37 353.5"/>
      <polyline points="87.03 355.98 91.14 357.74 91.38 357.17 87.27 355.41"/>
      <polyline points="91.15 357.75 95.45 359.36 95.67 358.78 91.37 357.17"/>
      <polyline points="95.47 359.36 99.93 360.82 100.12 360.23 95.66 358.77"/>
      <polyline points="99.94 360.82 104.56 362.11 104.73 361.51 100.11 360.22"/>
      <polyline points="104.57 362.11 109.32 363.23 109.46 362.63 104.71 361.51"/>
      <polyline points="109.33 363.23 114.19 364.17 114.31 363.57 109.45 362.62"/>
      <polyline points="114.2 364.18 119.15 364.94 119.25 364.33 114.29 363.56"/>
      <polyline points="119.16 364.94 124.19 365.53 124.26 364.91 119.23 364.33"/>
      <polyline points="124.2 365.53 129.28 365.93 129.33 365.31 124.25 364.91"/>
      <polyline points="129.29 365.93 134.4 366.15 134.43 365.53 129.31 365.31"/>
      <polyline points="134.41 366.15 139.54 366.18 139.54 365.56 134.42 365.53"/>
      <polyline points="139.55 366.18 144.67 366.03 144.65 365.41 139.53 365.56"/>
      <polyline points="144.68 366.03 149.77 365.69 149.73 365.07 144.64 365.41"/>
      <polyline points="149.78 365.68 154.83 365.16 154.76 364.54 149.72 365.07"/>
      <polyline points="154.84 365.16 159.82 364.45 159.73 363.84 154.75 364.55"/>
      <polyline points="159.83 364.45 164.72 363.57 164.61 362.96 159.72 363.84"/>
      <polyline points="164.73 363.56 169.52 362.5 169.38 361.9 164.6 362.96"/>
      <polyline points="169.53 362.5 174.19 361.27 174.03 360.67 169.37 361.9"/>
      <polyline points="174.2 361.26 178.72 359.87 178.54 359.27 174.02 360.67"/>
      <polyline points="174.16 118.85 178.67 117.45 178.58 117.16 174.07 118.56"/>
      <polyline points="169.49 120.08 174.15 118.85 174.07 118.55 169.41 119.79"/>
      <polyline points="164.7 121.15 169.48 120.09 169.42 119.78 164.63 120.84"/>
      <polyline points="159.8 122.03 164.69 121.15 164.64 120.84 159.75 121.73"/>
      <polyline points="154.82 122.74 159.8 122.03 159.75 121.73 154.77 122.43"/>
      <polyline points="149.77 123.26 154.81 122.74 154.78 122.43 149.73 122.96"/>
      <polyline points="144.67 123.61 149.76 123.27 149.74 122.96 144.65 123.3"/>
      <polyline points="139.54 123.76 144.66 123.61 144.65 123.3 139.53 123.45"/>
      <polyline points="134.41 123.73 139.54 123.76 139.54 123.45 134.41 123.42"/>
      <polyline points="129.29 123.51 134.41 123.73 134.42 123.42 129.31 123.2"/>
      <polyline points="124.21 123.11 129.29 123.51 129.31 123.2 124.23 122.8"/>
      <polyline points="119.18 122.53 124.2 123.11 124.24 122.8 119.22 122.22"/>
      <polyline points="114.22 121.76 119.17 122.52 119.22 122.22 114.27 121.45"/>
      <polyline points="109.36 120.81 114.22 121.76 114.28 121.45 109.42 120.51"/>
      <polyline points="104.61 119.69 109.35 120.81 109.42 120.51 104.68 119.39"/>
      <polyline points="99.99 118.4 104.6 119.69 104.68 119.39 100.07 118.11"/>
      <polyline points="95.51 116.95 99.98 118.4 100.08 118.11 95.61 116.65"/>
      <polyline points="91.21 115.34 95.51 116.95 95.62 116.66 91.32 115.05"/>
      <polyline points="87.09 113.57 91.2 115.33 91.32 115.05 87.21 113.28"/>
      <polyline points="83.16 111.65 87.08 113.57 87.22 113.29 83.3 111.38"/>
      <polyline points="79.46 109.6 83.16 111.65 83.31 111.38 79.61 109.33"/>
      <polyline points="75.98 107.42 79.45 109.6 79.61 109.34 76.14 107.16"/>
      <polyline points="72.75 105.11 75.97 107.41 76.15 107.16 72.93 104.86"/>
      <polyline points="69.77 102.7 72.74 105.11 72.93 104.87 69.97 102.46"/>
      <polyline points="67.06 100.17 69.76 102.69 69.97 102.46 67.27 99.95"/>
      <polyline points="64.63 97.56 67.05 100.17 67.28 99.96 64.86 97.35"/>
      <polyline points="62.49 94.86 64.62 97.55 64.87 97.36 62.73 94.67"/>
      <polyline points="60.64 92.08 62.48 94.85 62.74 94.68 60.9 91.91"/>
      <polyline points="59.1 89.25 60.64 92.07 60.91 91.93 59.38 89.1"/>
      <polyline points="57.87 86.36 59.1 89.24 59.38 89.11 58.16 86.24"/>
      <polyline points="56.96 83.43 57.87 86.35 58.17 86.25 57.26 83.34"/>
      <polyline points="56.37 80.48 56.96 83.42 57.26 83.36 56.67 80.42"/>
      <polyline points="56.1 77.51 56.37 80.46 56.67 80.43 56.41 77.48"/>
      <polyline points="56 74.53 55.94 77.49 56.56 77.5 56.62 74.54"/>
      <polyline points="56.37 71.54 56 74.49 56.61 74.57 56.99 71.62"/>
      <polyline points="57.08 68.58 56.38 71.51 56.98 71.65 57.68 68.72"/>
      <polyline points="58.1 65.65 57.08 68.55 57.67 68.75 58.68 65.85 58.1 65.65"/>
      <polyline points="59.44 62.76 58.11 65.62 58.67 65.88 60 63.02 59.44 62.76"/>
      <polyline points="61.08 59.93 59.45 62.73 59.98 63.05 61.62 60.24"/>
      <polyline points="63.04 57.17 61.1 59.91 61.6 60.26 63.54 57.52"/>
      <polyline points="65.28 54.48 63.05 57.15 63.53 57.54 65.76 54.88"/>
      <polyline points="67.81 51.89 65.3 54.46 65.74 54.9 68.26 52.32"/>
      <polyline points="70.62 49.39 67.83 51.87 68.24 52.33 71.03 49.85"/>
      <polyline points="73.69 47 70.64 49.38 71.02 49.86 74.07 47.49"/>
      <polyline points="77.02 44.73 73.71 46.99 74.06 47.5 77.37 45.24"/>
      <polyline points="80.58 42.58 77.03 44.72 77.35 45.25 80.9 43.11"/>
      <polyline points="84.37 40.57 80.6 42.57 80.89 43.12 84.66 41.12"/>
      <polyline points="88.37 38.7 84.38 40.56 84.64 41.13 88.63 39.26"/>
      <polyline points="92.56 36.98 88.38 38.7 88.62 39.27 92.79 37.55"/>
      <polyline points="96.93 35.42 92.57 36.98 92.78 37.56 97.14 36"/>
      <polyline points="101.46 34.01 96.94 35.41 97.12 36 101.64 34.61"/>
      <polyline points="106.13 32.78 101.47 34.01 101.63 34.61 106.29 33.38"/>
      <polyline points="110.93 31.71 106.14 32.78 106.28 33.38 111.06 32.32"/>
      <polyline points="115.83 30.83 110.94 31.71 111.05 32.32 115.94 31.44"/>
      <polyline points="120.82 30.12 115.84 30.83 115.93 31.44 120.91 30.73"/>
      <polyline points="125.88 29.59 120.83 30.12 120.9 30.73 125.94 30.21"/>
      <polyline points="130.98 29.25 125.89 29.59 125.93 30.21 131.02 29.87"/>
      <polyline points="136.11 29.1 130.99 29.25 131.01 29.87 136.13 29.72"/>
      <polyline points="141.25 29.13 136.12 29.1 136.12 29.72 141.25 29.75"/>
      <polyline points="146.37 29.35 141.26 29.13 141.23 29.75 146.35 29.96"/>
      <polyline points="151.46 29.75 146.38 29.35 146.34 29.96 151.41 30.37"/>
      <polyline points="156.5 30.33 151.47 29.75 151.4 30.36 156.43 30.95"/>
      <polyline points="161.46 31.1 156.51 30.34 156.42 30.95 161.37 31.71"/>
      <polyline points="166.33 32.05 161.47 31.1 161.36 31.71 166.21 32.66"/>
      <polyline points="171.09 33.17 166.34 32.05 166.2 32.65 170.95 33.77"/>
      <polyline points="175.72 34.46 171.1 33.17 170.94 33.77 175.55 35.06"/>
      <polyline points="180.2 35.92 175.73 34.46 175.54 35.05 180 36.51"/>
      <polyline points="184.51 37.53 180.21 35.92 179.99 36.5 184.29 38.11"/>
      <polyline points="188.64 39.3 184.52 37.54 184.28 38.11 188.39 39.87"/>
      <polyline points="192.56 41.22 188.65 39.31 188.38 39.87 192.29 41.78"/>
      <polyline points="196.28 43.27 192.58 41.23 192.28 41.77 195.98 43.82"/>
      <polyline points="199.76 45.46 196.29 43.28 195.96 43.81 199.43 45.99"/>
      <polyline points="203 47.77 199.78 45.47 199.42 45.98 202.64 48.28"/>
      <polyline points="205.99 50.2 203.02 47.78 202.63 48.26 205.6 50.68"/>
      <polyline points="208.71 52.72 206 50.21 205.58 50.66 208.28 53.18"/>
      <polyline points="211.14 55.35 208.72 52.74 208.27 53.16 210.69 55.77"/>
      <polyline points="213.29 58.06 211.16 55.37 210.67 55.75 212.81 58.44"/>
      <polyline points="215.15 60.84 213.31 58.08 212.79 58.42 214.63 61.18"/>
      <polyline points="216.69 63.69 215.16 60.87 214.62 61.16 216.15 63.99"/>
      <polyline points="217.93 66.59 216.71 63.72 216.14 63.96 217.36 66.83"/>
      <polyline points="218.85 69.53 217.94 66.62 217.35 66.8 218.26 69.72 218.85 69.53"/>
      <polyline points="219.44 72.5 218.85 69.56 218.25 69.69 218.84 72.63 219.44 72.5"/>
      <polyline points="219.72 75.49 219.45 72.54 218.83 72.59 219.1 75.55"/>
      <polyline points="219.51 78.48 219.56 75.52 219.25 75.52 219.2 78.48"/>
      <polyline points="219.13 81.45 219.51 78.5 219.2 78.46 218.83 81.41"/>
      <polyline points="218.43 84.4 219.13 81.47 218.83 81.39 218.13 84.33"/>
      <polyline points="217.42 87.32 218.43 84.41 218.14 84.31 217.12 87.21"/>
      <polyline points="216.08 90.19 217.41 87.33 217.13 87.2 215.8 90.06"/>
      <polyline points="214.44 93.01 216.08 90.2 215.81 90.04 214.18 92.85"/>
      <polyline points="212.5 95.76 214.44 93.02 214.18 92.84 212.25 95.58"/>
      <polyline points="210.26 98.43 212.49 95.77 212.25 95.57 210.02 98.23"/>
      <polyline points="207.74 101.02 210.25 98.44 210.03 98.22 207.51 100.8"/>
      <polyline points="204.94 103.51 207.73 101.03 207.52 100.79 204.73 103.28"/>
      <polyline points="201.87 105.89 204.93 103.51 204.74 103.27 201.68 105.65"/>
      <polyline points="198.56 108.16 201.86 105.9 201.69 105.64 198.38 107.9"/>
      <polyline points="195 110.3 198.55 108.16 198.39 107.9 194.84 110.03"/>
      <polyline points="191.22 112.3 194.99 110.3 194.85 110.03 191.07 112.03"/>
      <polyline points="187.23 114.17 191.21 112.31 191.08 112.03 187.1 113.89"/>
      <polyline points="183.04 115.89 187.22 114.17 187.1 113.89 182.93 115.6"/>
      <polyline points="178.68 117.45 183.04 115.89 182.93 115.6 178.58 117.16"/>
      <rect x="55.94" y="77.49" width=".62" height="242.26"/>
      <rect x="219.1" y="75.52" width=".62" height="242.27"/>
      <polyline points="453.19 381.33 453.38 377.3 452.76 377.27 452.57 381.3"/>
      <polyline points="452.56 385.38 453.19 381.37 452.58 381.27 451.95 385.29"/>
      <polyline points="451.49 389.41 452.55 385.42 451.95 385.26 450.89 389.25"/>
      <polyline points="449.98 393.38 451.48 389.44 450.9 389.22 449.4 393.16"/>
      <polyline points="448.05 397.29 449.97 393.41 449.42 393.13 447.49 397.01"/>
      <polyline points="445.69 401.11 448.03 397.31 447.51 396.99 445.17 400.79"/>
      <polyline points="442.93 404.85 445.68 401.14 445.18 400.77 442.43 404.48"/>
      <polyline points="439.77 408.47 442.92 404.86 442.45 404.46 439.3 408.06"/>
      <polyline points="436.22 411.97 439.75 408.49 439.32 408.04 435.79 411.53"/>
      <polyline points="432.3 415.33 436.2 411.98 435.8 411.51 431.9 414.86"/>
      <polyline points="428.02 418.54 432.28 415.34 431.91 414.85 427.65 418.05"/>
      <polyline points="423.41 421.59 428.01 418.55 427.67 418.04 423.07 421.07"/>
      <polyline points="418.47 424.47 423.39 421.6 423.08 421.06 418.16 423.93"/>
      <polyline points="413.23 427.15 418.46 424.47 418.17 423.92 412.95 426.6"/>
      <polyline points="407.71 429.65 413.22 427.16 412.96 426.6 407.46 429.08"/>
      <polyline points="401.94 431.94 407.7 429.65 407.47 429.08 401.71 431.36"/>
      <polyline points="395.92 434.01 401.92 431.94 401.72 431.36 395.72 433.42"/>
      <polyline points="389.69 435.86 395.91 434.01 395.73 433.42 389.52 435.27"/>
      <polyline points="383.28 437.48 389.68 435.87 389.53 435.26 383.13 436.88"/>
      <polyline points="376.7 438.87 383.27 437.49 383.14 436.88 376.57 438.26"/>
      <polyline points="369.98 440.01 376.69 438.87 376.58 438.26 369.88 439.4"/>
      <polyline points="363.16 440.91 369.97 440.02 369.89 439.4 363.08 440.3"/>
      <polyline points="356.25 441.56 363.15 440.91 363.09 440.3 356.19 440.95"/>
      <polyline points="349.28 441.96 356.23 441.56 356.2 440.94 349.24 441.34"/>
      <polyline points="342.28 442.1 349.27 441.96 349.25 441.34 342.27 441.49"/>
      <polyline points="335.28 441.99 342.27 442.1 342.28 441.49 335.29 441.38"/>
      <polyline points="328.31 441.63 335.27 441.99 335.3 441.38 328.34 441.01"/>
      <polyline points="321.39 441.02 328.3 441.63 328.35 441.01 321.45 440.4"/>
      <polyline points="314.55 440.15 321.38 441.02 321.46 440.4 314.63 439.54"/>
      <polyline points="307.82 439.04 314.54 440.15 314.64 439.54 307.92 438.43"/>
      <polyline points="301.22 437.69 307.81 439.04 307.93 438.43 301.34 437.08"/>
      <polyline points="294.78 436.1 301.21 437.68 301.36 437.08 294.93 435.5"/>
      <polyline points="288.53 434.28 294.77 436.09 294.94 435.5 288.7 433.68"/>
      <polyline points="282.48 432.23 288.51 434.27 288.71 433.69 282.68 431.65"/>
      <polyline points="276.67 429.97 282.47 432.23 282.69 431.65 276.9 429.4"/>
      <polyline points="271.12 427.51 276.66 429.97 276.91 429.4 271.37 426.94"/>
      <polyline points="265.84 424.85 271.1 427.5 271.38 426.95 266.12 424.29"/>
      <polyline points="260.86 422 265.83 424.84 266.13 424.3 261.17 421.46"/>
      <polyline points="256.2 418.97 260.85 421.99 261.19 421.47 256.54 418.45"/>
      <polyline points="251.88 415.78 256.19 418.96 256.56 418.46 252.25 415.28"/>
      <polyline points="247.91 412.44 251.87 415.77 252.26 415.3 248.31 411.97"/>
      <polyline points="244.31 408.96 247.9 412.43 248.33 411.98 244.74 408.52"/>
      <polyline points="241.1 405.36 244.3 408.95 244.76 408.53 241.56 404.95"/>
      <polyline points="238.28 401.64 241.08 405.34 241.58 404.97 238.77 401.27"/>
      <polyline points="235.87 397.83 238.26 401.62 238.79 401.29 236.39 397.5"/>
      <polyline points="233.88 393.93 235.85 397.81 236.41 397.52 234.43 393.65"/>
      <polyline points="232.31 389.97 233.86 393.91 234.44 393.68 232.89 389.75"/>
      <polyline points="231.18 385.96 232.3 389.94 232.9 389.78 231.77 385.79"/>
      <polyline points="230.48 381.91 231.17 385.93 231.78 385.82 231.09 381.81"/>
      <polyline points="230.23 377.85 230.48 381.88 231.1 381.84 230.85 377.81"/>
      <polyline points="369.06 308.9 362.23 308.04 362.15 308.65 368.98 309.52"/>
      <polyline points="375.79 310.01 369.07 308.9 368.97 309.51 375.69 310.62"/>
      <polyline points="382.39 311.37 375.8 310.02 375.68 310.62 382.27 311.97"/>
      <polyline points="388.83 312.96 382.4 311.37 382.25 311.97 388.68 313.56"/>
      <polyline points="395.08 314.78 388.84 312.96 388.67 313.55 394.91 315.37"/>
      <polyline points="401.13 316.82 395.09 314.78 394.9 315.37 400.93 317.41"/>
      <polyline points="406.94 319.08 401.14 316.82 400.91 317.4 406.71 319.66"/>
      <polyline points="412.49 321.54 406.95 319.08 406.7 319.65 412.24 322.11"/>
      <polyline points="417.77 324.21 412.51 321.55 412.23 322.1 417.49 324.76"/>
      <polyline points="422.75 327.06 417.78 324.21 417.48 324.75 422.44 327.59"/>
      <polyline points="427.41 330.08 422.76 327.07 422.42 327.59 427.07 330.6"/>
      <polyline points="431.73 333.27 427.42 330.09 427.05 330.59 431.36 333.77"/>
      <polyline points="435.7 336.61 431.74 333.28 431.35 333.76 435.3 337.08"/>
      <polyline points="439.3 340.09 435.71 336.62 435.28 337.07 438.87 340.54"/>
      <polyline points="442.51 343.69 439.31 340.11 438.85 340.52 442.05 344.11"/>
      <polyline points="445.33 347.41 442.53 343.71 442.03 344.09 444.84 347.78"/>
      <polyline points="447.74 351.22 445.35 347.43 444.82 347.76 447.22 351.55"/>
      <polyline points="449.73 355.12 447.76 351.25 447.2 351.53 449.18 355.4"/>
      <polyline points="451.3 359.08 449.75 355.15 449.17 355.37 450.72 359.31"/>
      <polyline points="452.43 363.09 451.31 359.11 450.71 359.28 451.84 363.26 452.43 363.09"/>
      <polyline points="453.13 367.14 452.44 363.13 451.83 363.23 452.52 367.25 453.13 367.14"/>
      <polyline points="453.38 371.21 453.13 367.17 452.51 367.21 452.76 371.25 453.38 371.21"/>
      <polyline points="453.04 375.27 453.23 371.23 452.92 371.22 452.73 375.25"/>
      <polyline points="452.41 379.3 453.03 375.28 452.73 375.24 452.1 379.26"/>
      <polyline points="451.34 383.31 452.4 379.32 452.1 379.24 451.04 383.23"/>
      <polyline points="449.84 387.27 451.33 383.32 451.04 383.21 449.55 387.16"/>
      <polyline points="447.91 391.16 449.83 387.28 449.55 387.14 447.63 391.02"/>
      <polyline points="445.56 394.98 447.9 391.17 447.64 391.01 445.3 394.81"/>
      <polyline points="442.81 398.7 445.56 394.99 445.31 394.8 442.56 398.51"/>
      <polyline points="439.65 402.31 442.8 398.71 442.57 398.5 439.42 402.11"/>
      <polyline points="436.11 405.8 439.64 402.32 439.43 402.1 435.89 405.58"/>
      <polyline points="432.2 409.16 436.1 405.81 435.9 405.57 432 408.92"/>
      <polyline points="427.93 412.36 432.19 409.16 432.01 408.91 427.74 412.11"/>
      <polyline points="423.32 415.4 427.92 412.37 427.75 412.11 423.15 415.15"/>
      <polyline points="418.39 418.28 423.31 415.41 423.16 415.14 418.24 418.01"/>
      <polyline points="413.16 420.96 418.39 418.28 418.24 418 413.02 420.68"/>
      <polyline points="407.65 423.45 413.16 420.96 413.03 420.68 407.52 423.17"/>
      <polyline points="401.88 425.74 407.64 423.45 407.53 423.17 401.76 425.45"/>
      <polyline points="395.87 427.81 401.87 425.74 401.77 425.45 395.77 427.52"/>
      <polyline points="389.65 429.66 395.86 427.81 395.78 427.51 389.56 429.36"/>
      <polyline points="383.24 431.28 389.64 429.66 389.57 429.36 383.16 430.98"/>
      <polyline points="376.67 432.66 383.23 431.28 383.17 430.98 376.6 432.36"/>
      <polyline points="369.96 433.81 376.66 432.66 376.61 432.36 369.91 433.5"/>
      <polyline points="363.14 434.7 369.95 433.81 369.91 433.5 363.1 434.4"/>
      <polyline points="356.23 435.35 363.13 434.7 363.1 434.4 356.2 435.04"/>
      <polyline points="349.27 435.75 356.23 435.35 356.21 435.04 349.25 435.44"/>
      <polyline points="342.28 435.89 349.26 435.75 349.26 435.44 342.27 435.58"/>
      <polyline points="335.29 435.78 342.27 435.89 342.28 435.58 335.29 435.47"/>
      <polyline points="328.32 435.42 335.28 435.78 335.3 435.47 328.33 435.11"/>
      <polyline points="321.4 434.81 328.31 435.42 328.34 435.11 321.43 434.5"/>
      <polyline points="314.57 433.94 321.4 434.81 321.44 434.5 314.61 433.63"/>
      <polyline points="307.84 432.83 314.56 433.94 314.62 433.63 307.89 432.53"/>
      <polyline points="301.25 431.48 307.84 432.83 307.9 432.53 301.31 431.18"/>
      <polyline points="294.82 429.89 301.25 431.48 301.32 431.18 294.89 429.59"/>
      <polyline points="288.57 428.07 294.81 429.89 294.9 429.59 288.66 427.77"/>
      <polyline points="282.53 426.03 288.56 428.07 288.66 427.78 282.63 425.74"/>
      <polyline points="276.73 423.77 282.53 426.03 282.64 425.74 276.84 423.48"/>
      <polyline points="271.18 421.31 276.72 423.77 276.85 423.49 271.31 421.03"/>
      <polyline points="265.91 418.65 271.17 421.31 271.31 421.03 266.05 418.37"/>
      <polyline points="260.94 415.81 265.9 418.65 266.06 418.38 261.09 415.54"/>
      <polyline points="256.29 412.79 260.93 415.8 261.1 415.54 256.46 412.53"/>
      <polyline points="251.97 409.6 256.28 412.78 256.46 412.53 252.16 409.35"/>
      <polyline points="248.01 406.27 251.97 409.6 252.16 409.36 248.21 406.03"/>
      <polyline points="244.42 402.8 248 406.26 248.22 406.04 244.64 402.57"/>
      <polyline points="241.21 399.2 244.41 402.79 244.64 402.58 241.44 398.99"/>
      <polyline points="238.4 395.49 241.2 399.19 241.45 399 238.65 395.31"/>
      <polyline points="236 391.69 238.39 395.48 238.66 395.32 236.26 391.53"/>
      <polyline points="234.01 387.81 235.99 391.68 236.27 391.54 234.29 387.67"/>
      <polyline points="232.45 383.86 234.01 387.79 234.3 387.68 232.74 383.75"/>
      <polyline points="231.33 379.86 232.45 383.84 232.75 383.76 231.62 379.78"/>
      <polyline points="230.63 375.83 231.32 379.85 231.63 379.79 230.94 375.78"/>
      <polyline points="230.38 371.78 230.63 375.81 230.94 375.79 230.69 371.76 230.38 371.78"/>
      <polyline points="230.42 367.72 230.23 371.76 230.85 371.78 231.04 367.75 230.42 367.72"/>
      <polyline points="231.05 363.67 230.42 367.69 231.03 367.78 231.66 363.76 231.05 363.67"/>
      <polyline points="232.12 359.65 231.06 363.64 231.66 363.8 232.72 359.81"/>
      <polyline points="233.63 355.68 232.13 359.62 232.71 359.84 234.21 355.9"/>
      <polyline points="235.56 351.77 233.64 355.65 234.19 355.92 236.12 352.04"/>
      <polyline points="237.91 347.94 235.57 351.74 236.1 352.07 238.44 348.27"/>
      <polyline points="240.68 344.21 237.93 347.92 238.43 348.29 241.18 344.58"/>
      <polyline points="243.84 340.58 240.69 344.19 241.16 344.6 244.31 340.99"/>
      <polyline points="247.39 337.09 243.86 340.57 244.29 341.01 247.82 337.53"/>
      <polyline points="251.31 333.72 247.41 337.07 247.81 337.54 251.71 334.19"/>
      <polyline points="255.59 330.51 251.33 333.71 251.7 334.21 255.96 331.01"/>
      <polyline points="260.2 327.46 255.6 330.5 255.94 331.02 260.54 327.98"/>
      <polyline points="265.14 324.59 260.22 327.45 260.53 327.99 265.45 325.12"/>
      <polyline points="270.38 321.9 265.15 324.58 265.44 325.13 270.66 322.45"/>
      <polyline points="275.9 319.4 270.39 321.89 270.65 322.46 276.15 319.97"/>
      <polyline points="281.67 317.12 275.91 319.4 276.14 319.98 281.9 317.69"/>
      <polyline points="287.69 315.04 281.69 317.11 281.89 317.7 287.89 315.63"/>
      <polyline points="293.92 313.19 287.7 315.04 287.88 315.63 294.09 313.79"/>
      <polyline points="300.33 311.57 293.93 313.19 294.08 313.79 300.48 312.17"/>
      <polyline points="306.91 310.18 300.34 311.57 300.47 312.17 307.04 310.79"/>
      <polyline points="313.63 309.04 306.92 310.18 307.03 310.79 313.73 309.65"/>
      <polyline points="320.45 308.14 313.64 309.04 313.72 309.65 320.53 308.75"/>
      <polyline points="327.36 307.49 320.46 308.14 320.52 308.76 327.42 308.11"/>
      <polyline points="334.33 307.09 327.37 307.49 327.41 308.11 334.37 307.71"/>
      <polyline points="341.33 306.95 334.34 307.09 334.36 307.71 341.34 307.57"/>
      <polyline points="348.33 307.06 341.34 306.95 341.33 307.57 348.32 307.68"/>
      <polyline points="355.3 307.42 348.34 307.06 348.31 307.68 355.27 308.04"/>
      <polyline points="362.22 308.04 355.31 307.42 355.26 308.04 362.16 308.65"/>
      <rect x="452.76" y="371.23" width=".62" height="6.06"/>
      <rect x="230.23" y="371.77" width=".62" height="6.06"/>
      <path class="cls-42" d="m145.48,22.22l-3.54-.15-5.1-.03-3.43.1-.03-1,3.43-.1,5.16.03,3.54.15-.04,1m-35.96,2.93l-.22-.98,2.3-.51,4.9-.89,4.76-.67.14.99-4.73.67-4.88.88-2.28.5m0,0h0s0,0,0,0m59.8.4l-2.45-.58-4.84-.94-4.56-.71.15-.99,4.58.71,4.88.95,2.47.58-.23.97m-82.59,7.27l-.42-.91,2.69-1.26,4.2-1.72,4.36-1.56.34.94-4.34,1.56-4.16,1.71-2.67,1.25m0,0h0s0,0,0,0m105.24.79l-2.96-1.44-4.09-1.75-4.04-1.51.35-.94,4.06,1.52,4.14,1.78,2.98,1.45-.44.9m-124.79,12.93l-.72-.7,1.93-1.98,2.82-2.5,3.09-2.4,1.45-.99.56.83-1.44.98-3.02,2.35-2.77,2.46-1.9,1.95h0m143.93,1.33l-2.27-2.44-2.68-2.49-2.94-2.39-.99-.71.58-.81,1.02.73,2.99,2.43,2.73,2.54,2.3,2.47-.73.68m-153.76,19.85l-.87-.02.02-1.09.38-3,.71-2.99,1.03-2.94.85-1.82.91.42-.82,1.77-1,2.86-.68,2.88-.37,2.9v.63s-.15.4-.15.4m163.22,1.82l-1-.02.03-1.87-.26-2.9-.58-2.89-.89-2.86-.46-1.07h0s.92-.39.92-.39l.48,1.12.92,2.96.6,2.99.27,3.01-.04,1.93"/>
      <path class="cls-41" d="m65.23,90.07l-.15-.16-2.16-2.72-1.86-2.8-1.56-2.87-.77-1.8.92-.39.75,1.76,1.51,2.79,1.81,2.72,2.11,2.66.13.14h0s-.73.68-.73.68m145.38,1.35l-.72-.7.59-.6,2.21-2.63,1.91-2.7,1.61-2.77.48-1.04.91.42-.5,1.08-1.66,2.85-1.96,2.77-2.26,2.7h-.01s-.6.63-.6.63m-125.94,13.13l-.96-.47-3.72-2.06-3.49-2.19-2.23-1.59.58-.82,2.21,1.57,3.45,2.16,3.68,2.04.93.45-.44.9m106.1.8l-.42-.91,1.29-.6,3.75-1.99,3.53-2.12,1.85-1.26.56.83-1.87,1.28-3.58,2.15-3.79,2.01-1.31.61m-83.24,7.34l-2.29-.54-4.64-1.29-4.48-1.46h-.01s-.25-.1-.25-.1l.35-.94.24.09,4.45,1.45,4.59,1.28,2.28.54h0l-.23.97m60.25.41l-.22-.98,2.48-.55,4.64-1.23,4.51-1.4h0s.29.96.29.96l-4.53,1.4-4.69,1.24-2.49.55m-36.22,2.95l-1.57-.07-5.1-.4-5.04-.59h-.01s-.38-.06-.38-.06l.15-.99.36.06,5.03.58,5.05.4,1.56.07-.04,1m12.14.08l-.03-1,1.68-.05,5.08-.34,5.04-.52.22-.03.14.99-.25.04-5.06.52-5.12.34-1.7.05"/>
      <polyline class="cls-74" points="57.5 67.74 57.37 67.73 57.51 67.33 57.5 67.73 57.5 67.74"/>
      <path class="cls-42" d="m328.21,297.33l-.06-1,5.34-.3,6.66-.14.02,1-6.65.14-5.32.3m44.94,2.33l-5.04-.83-6.81-.86-6.89-.61-2.28-.12.05-1,2.28.12,6.93.62,6.85.87,5.06.83-.16.99m-68.64.81l-.21-.98,1.74-.37,6.73-1.15,3.41-.45.13.99-3.39.45-6.68,1.14-1.73.36m91.82,4.99l-2.33-.79-6.22-1.81-2.94-.73.24-.97,2.95.73,6.27,1.83,2.34.79-.32.95m-114.86,1.42h0l-.33-.95,5.65-1.95,5.79-1.72.29.96-5.77,1.71-5.64,1.94m136.74,8.11l-1.65-.95-5.24-2.64-3.82-1.7h0l.41-.91,3.84,1.71,5.28,2.67,1.67.96-.5.87m-158.26,2.19l-.5-.86,4.78-2.78,5.25-2.69h0s.56-.26.56-.26l.41.91-.55.25-5.2,2.67-4.75,2.77m177.34,12.02l-2.97-2.87-3.92-3.3-2.16-1.59.59-.8,2.18,1.61,3.98,3.35,2.98,2.89-.7.72m-195.56,3.2l-.75-.66,1.9-2.18,3.55-3.5,3.18-2.73.65.76-3.15,2.7-3.51,3.46-1.88,2.15h0m208.14,16.67l-.17-.6-1.53-3.89-1.96-3.83-1.47-2.33.84-.53,1.5,2.37,2,3.91,1.57,3.98v.02s.18.62.18.62l-.96.27m-218.91,4.17l-.99-.15.05-.35,1.08-4.04,1.51-3.99,1.49-3,.9.44-1.46,2.96-1.48,3.9-1.05,3.94-.05.3h0m221.68,9.15h-.4l-.47-1.67.95.04-.08,1.62m-.07,1.49l-.08-.49h.11l-.02.49m-222.24,5.81l-.18-.63-.66-3.86.99-.17.19,1.12-.24,1.55.3.05h-.31s-.09,1.95-.09,1.95"/>
      <path class="cls-41" d="m450.76,372.72l-.93-.35.05-.12,1.05-3.94.62-3.97.04-.95h.27l.44,2.59-.39,2.52-1.08,4.04v.02s-.06.14-.06.14m-218.01,4.09l-1.47-3.71-.43-1.52.16-3.37.11.64,1.11,3.93,1.45,3.67-.93.37m205.06,16.11l-.7-.71,1.23-1.21,3.12-3.58,2.73-3.68.44-.71.85.52-.46.75-2.77,3.74-3.17,3.63-1.26,1.24m-190.49,3.05l-.38-.32-3.61-3.49-3.22-3.61-1.06-1.4.8-.6,1.04,1.36,3.17,3.56,3.56,3.44.35.29-.65.77m171.19,11.28l-.5-.86,4.13-2.41,4.57-3.02,1.35-1.01.6.8-1.37,1.03-4.62,3.05-4.15,2.42m-151.18,2.05l-2.42-1.22-4.98-2.85-3.02-1.96.54-.84,2.99,1.94,4.94,2.83,2.4,1.21h0s-.45.89-.45.89m129.11,7.52l-.33-.95,4.7-1.62,5.75-2.28.72-.33h0s.41.91.41.91l-.75.34-5.78,2.29-4.73,1.63m-106.73,1.31l-2.08-.61-6.05-2.04-3.26-1.27.36-.93,3.23,1.26,6.01,2.03,2.06.6h0s-.28.96-.28.96m83.38,4.48l-.17-.99,2.79-.48,6.55-1.38,2.36-.6.25.97-2.39.61-6.56,1.38-2.83.48m-59.91.72l-6.23-1.03-5.58-1.14.2-.98,5.57,1.14,6.21,1.03-.16.99m36.01,1.85l-.06-1,6.22-.35,5.73-.54.09,1-5.74.54-6.24.36m-12.03.12l-2.72-.04-6.97-.36-2.33-.21.09-1,2.31.21,6.96.36,2.68.04-.02,1"/>
      <polyline class="cls-74" points="452.23 362.39 451.64 362.39 451.72 360.72 451.72 360.72 451.76 360.72 452.23 362.39"/>
      <polyline class="cls-74" points="452.3 365.98 451.86 363.39 452.49 363.39 452.57 363.88 452.54 364.44 452.3 365.98"/>
      <polyline class="cls-74" points="230.86 371.57 230.33 369.68 230.42 367.72 230.73 367.74 230.94 367.77 231.02 368.19 230.86 371.57"/>
      <polyline class="cls-74" points="230.94 367.77 230.73 367.74 230.42 367.69 230.66 366.14 230.94 367.77"/>
      <rect class="cls-76" x="30.84" y="71.31" width="1" height="262.81"/>
      <rect class="cls-76" x="22.84" y="323.1" width="16.99" height="1"/>
      <rect class="cls-76" x="22.79" y="76.89" width="16.99" height="1"/>
      <text class="cls-2" transform="translate(0 201.57)"><tspan x="0" y="0">0,80</tspan></text>
      <rect class="cls-76" x="48.93" y="14.83" width="176.79" height="1"/>
      <rect class="cls-76" x="55.52" y="6.83" width="1" height="16.99"/>
      <rect class="cls-76" x="219.22" y="6.77" width="1" height="16.99"/>
      <text class="cls-2" transform="translate(125.48 10.04)"><tspan x="0" y="0">0,40</tspan></text>
      <text class="cls-2" transform="translate(328.06 284.44)"><tspan x="0" y="0">0,60</tspan></text>
      <rect class="cls-76" x="222.15" y="290.12" width="238.21" height="1"/>
      <rect class="cls-76" x="231.2" y="282.12" width="1" height="16.99"/>
      <rect class="cls-76" x="451.76" y="282.07" width="1" height="16.99"/>
      <rect class="cls-42" x="220.06" y="70.66" width="6" height="1"/>
      <path class="cls-42" d="m251.57,71.66h-12.76v-1h12.76v1m25.51,0h-12.76v-1h12.76v1m25.51,0h-12.76v-1h12.76v1m25.51,0h-12.76v-1h12.76v1m25.51,0h-12.76v-1h12.76v1m25.51,0h-12.76v-1h12.76v1m25.51,0h-12.76v-1h12.76v1"/>
      <rect class="cls-42" x="417.39" y="70.66" width="6" height="1"/>
      <polyline class="cls-42" points="457.42 363.39 452.59 363.39 452.64 362.39 457.42 362.39 457.42 363.39"/>
      <polyline class="cls-41" points="451.59 363.39 451.42 363.39 451.42 362.39 451.59 362.39 451.63 362.53 451.59 363.39"/>
      <polyline class="cls-74" points="451.63 362.53 451.59 362.39 451.64 362.39 451.63 362.53"/>
      <polyline class="cls-71" points="452.59 363.39 452.49 363.39 452.44 363.13 452.14 363.18 452.43 363.09 452.23 362.39 452.64 362.39 452.59 363.39"/>
      <polyline class="cls-77" points="451.86 363.39 451.59 363.39 451.63 362.53 451.83 363.25 451.86 363.39"/>
      <polyline class="cls-75" points="451.83 363.25 451.63 362.53 451.64 362.39 452.23 362.39 452.43 363.09 452.14 363.18 451.83 363.23 451.83 363.25"/>
      <polyline class="cls-75" points="452.49 363.39 451.86 363.39 451.83 363.25 451.83 363.23 452.14 363.18 452.44 363.13 452.49 363.39"/>
      <rect class="cls-42" x="470.81" y="362.39" width="13.39" height="1"/>
      <text class="cls-1" transform="translate(443.26 21.97)"><tspan x="0" y="0">D</tspan><tspan class="cls-3" x="8.48" y="0">E</tspan><tspan class="cls-83" x="14.95" y="0">T</tspan><tspan x="20.32" y="0">AIL FR</tspan><tspan class="cls-87" x="52.91" y="0">A</tspan><tspan x="60.52" y="0">GMENT</tspan></text>
      <text class="cls-1" transform="translate(443.97 67.58)"><tspan x="0" y="0">FL</tspan><tspan class="cls-86" x="12.21" y="0">Ä</tspan><tspan x="19.82" y="0">CHE ZUM ABLEGEN</tspan><tspan class="cls-84" x="122.52" y="0"> </tspan><tspan x="124.76" y="0">VON GEGENS</tspan><tspan class="cls-82" x="195.35" y="0">T</tspan><tspan x="200.73" y="0">ÄNDEN</tspan></text>
      <text class="cls-1" transform="translate(443.97 82.86)"><tspan x="0" y="0">/ FL</tspan><tspan class="cls-86" x="19.28" y="0">Ä</tspan><tspan class="cls-81" x="26.89" y="0">CHE ZUM SITZEN</tspan></text>
      <rect class="cls-42" x="497.59" y="362.39" width="6" height="1"/>
      <text class="cls-1" transform="translate(512.4 366.58)"><tspan x="0" y="0">TRI</tspan><tspan class="cls-88" x="16.22" y="0">T</tspan><tspan x="23.03" y="0">TFL</tspan><tspan class="cls-85" x="41.57" y="0">Ä</tspan><tspan x="49.18" y="0">CHE </tspan></text>
    </g>
  </g>
</svg>