<?xml version="1.0" encoding="UTF-8"?>
<svg id="Ebene_2" data-name="Ebene 2" xmlns="http://www.w3.org/2000/svg" viewBox="0 0 906.42 883.76">
  <defs>
    <style>
      .cls-1 {
        fill: #9294c9;
      }

      .cls-2 {
        fill: #20244d;
      }
    </style>
  </defs>
  <g id="Ebene_1-2" data-name="Ebene 1">
    <g id="vlpa">
      <g id="vlpb">
        <g id="vlpc">
          <g id="vlpd">
            <path class="cls-2" d="m160.51,0h585.39c88.75,0,160.51,71.76,160.51,160.51v562.73c0,88.75-71.76,160.51-160.51,160.51H160.51C71.76,883.76,0,812,0,723.24V160.51C0,71.76,71.76,0,160.51,0Z"/>
          </g>
        </g>
      </g>
      <g id="vlpe">
        <g id="vlpf">
          <path class="cls-1" d="m215.27,619.38V230.38c0-2.64,1.13-4.15,3.78-4.15,6.42,0,12.46,0,21.15-.38,9.06-.38,18.51-.38,28.7-.76,10.2-.38,21.15-.38,32.86-.76s23.04-.38,34.37-.38c30.97,0,56.65,3.78,77.8,11.71,18.88,6.42,36.26,17,50.61,30.97,12.09,12.09,21.53,26.81,27.57,43.05,5.67,15.86,8.69,32.1,8.69,49.1,0,32.48-7.55,59.29-22.66,80.44-15.11,21.15-36.26,37.01-60.81,46.08-25.68,9.44-54.01,12.84-84.98,12.84-9.06,0-15.11,0-18.88-.38-3.78-.38-9.06-.38-16.24-.38v121.23c.38,2.64-1.51,4.91-4.15,5.29h-73.27c-3.02,0-4.53-1.51-4.53-4.91v.38Zm82.33-319.89v126.9c5.29.38,10.2.76,14.73.76h20.02c14.73,0,29.46-2.27,43.43-6.8,12.09-3.4,22.66-10.57,30.97-20.02,7.93-9.44,11.71-22.28,11.71-38.9.38-11.71-2.64-23.42-8.69-33.61-6.42-9.82-15.48-17.37-26.44-21.53-13.97-5.67-29.08-7.93-44.57-7.55-9.82,0-18.51,0-25.68.38-7.55-.38-12.84,0-15.48.38h0Z"/>
          <path class="cls-1" d="m555.18,321.78h66.09c3.78,0,6.8,2.64,7.93,6.04,1.13,3.02,1.89,6.04,2.27,9.44.76,3.78,1.51,7.93,1.89,11.71.38,4.15.76,8.69.76,13.6,11.33-13.22,24.93-24.17,40.41-32.48,17.37-9.82,37.39-14.73,57.41-14.73,2.64-.38,4.91,1.51,5.29,4.15v75.16c0,3.02-1.89,4.15-6.04,4.15-13.6-.38-27.57.76-40.79,3.78-10.95,2.27-21.53,5.67-31.72,10.2-7.18,3.4-13.97,7.93-19.26,13.97v192.61c0,3.78-1.51,5.29-4.91,5.29h-74.4c-3.02.38-5.67-1.51-6.04-4.53v-210.74c0-9.06,0-18.51-.38-28.33s-.38-19.64-.76-29.46c0-8.69-.76-17-1.51-25.68-.38-1.89.76-3.78,2.64-4.15,0-.38.76-.38,1.13,0h0Z"/>
        </g>
      </g>
    </g>
  </g>
</svg>