<?xml version="1.0" encoding="UTF-8"?>
<svg id="Ebene_2" data-name="Ebene 2" xmlns="http://www.w3.org/2000/svg" xmlns:xlink="http://www.w3.org/1999/xlink" viewBox="0 0 88.1 88.1">
  <defs>
    <style>
      .cls-1 {
        fill: #d9d9d9;
      }

      .cls-2 {
        fill: #1c1b1f;
      }

      .cls-3 {
        fill: none;
        mask: url(#mask);
      }
    </style>
    <mask id="mask" x="-8.81" y="-8.81" width="105.72" height="105.72" maskUnits="userSpaceOnUse">
      <g id="mask1_171_1684" data-name="mask1 171 1684">
        <rect class="cls-1" x="-8.81" y="-8.81" width="105.72" height="105.72"/>
      </g>
    </mask>
  </defs>
  <g id="Ebene_1-2" data-name="Ebene 1">
    <g class="cls-3">
      <path class="cls-2" d="m44.05,60.13l4.63-4.63-8.15-8.15h20.04v-6.61h-20.04l8.15-8.15-4.63-4.63-16.08,16.08,16.08,16.08Zm0,27.97c-6.02,0-11.71-1.16-17.07-3.47s-10.04-5.47-14.04-9.47c-4-4-7.16-8.68-9.47-14.04-2.31-5.36-3.47-11.05-3.47-17.07s1.16-11.82,3.47-17.18c2.31-5.36,5.47-10.02,9.47-13.99,4-3.96,8.68-7.1,14.04-9.42,5.36-2.31,11.05-3.47,17.07-3.47s11.82,1.16,17.18,3.47c5.36,2.31,10.02,5.45,13.99,9.42,3.96,3.96,7.1,8.63,9.42,13.99,2.31,5.36,3.47,11.09,3.47,17.18s-1.16,11.71-3.47,17.07-5.45,10.04-9.42,14.04c-3.96,4-8.63,7.16-13.99,9.47s-11.09,3.47-17.18,3.47Zm0-6.61c10.43,0,19.27-3.65,26.54-10.96s10.9-16.13,10.9-26.49-3.63-19.27-10.9-26.54c-7.27-7.27-16.12-10.9-26.54-10.9s-19.18,3.63-26.49,10.9c-7.3,7.27-10.96,16.12-10.96,26.54s3.65,19.18,10.96,26.49c7.31,7.31,16.13,10.96,26.49,10.96Z"/>
    </g>
  </g>
</svg>