<?xml version="1.0" encoding="UTF-8"?>
<svg id="Ebene_2" data-name="Ebene 2" xmlns="http://www.w3.org/2000/svg" viewBox="0 0 900.39 877.88">
  <defs>
    <style>
      .cls-1 {
        fill: #132035;
      }

      .cls-2 {
        fill: #53a0d8;
      }
    </style>
  </defs>
  <g id="Ebene_1-2" data-name="Ebene 1">
    <g id="Layer_2" data-name="Layer 2">
      <g id="Surfaces">
        <g id="Photo_Surface" data-name="Photo Surface">
          <g id="Outline_no_shadow" data-name="Outline no shadow">
            <path class="cls-1" d="m159.44,0h581.5c88.16,0,159.44,71.28,159.44,159.44v558.99c0,88.16-71.28,159.44-159.44,159.44H159.44C71.28,877.88,0,806.6,0,718.43V159.44C0,71.28,71.28,0,159.44,0Z"/>
          </g>
        </g>
      </g>
      <g id="Outlined_Mnemonics_Logos" data-name="Outlined Mnemonics Logos">
        <g id="Ps">
          <path class="cls-2" d="m202.59,615.64V229.6c0-2.63,1.13-4.13,3.75-4.13,6.38,0,12.38,0,21.01-.38,9-.38,18.38-.38,28.51-.75,10.13-.38,21.01-.38,32.64-.75,11.63-.38,22.88-.38,34.14-.38,30.76,0,56.27,3.75,77.28,11.63,18.76,6.38,36.02,16.88,50.27,30.76,12.01,12.01,21.38,26.64,27.39,42.77,5.63,15.76,8.63,31.89,8.63,48.77,0,32.26-7.5,58.9-22.51,79.91s-36.02,36.77-60.4,45.77c-25.51,9.38-53.65,12.76-84.41,12.76-9,0-15.01,0-18.76-.38-3.75-.38-9-.38-16.13-.38v120.43c.38,2.63-1.5,4.88-4.13,5.25h-72.78c-3,0-4.5-1.5-4.5-4.88Zm81.79-317.76v126.05c5.25.38,10.13.75,14.63.75h19.88c14.63,0,29.26-2.25,43.14-6.75,12.01-3.38,22.51-10.5,30.76-19.88,7.88-9.38,11.63-22.13,11.63-38.64.38-11.63-2.63-23.26-8.63-33.39-6.38-9.75-15.38-17.26-26.26-21.38-13.88-5.63-28.89-7.88-44.27-7.5-9.75,0-18.38,0-25.51.38-7.5-.38-12.76,0-15.38.38h0Z"/>
          <path class="cls-2" d="m720.31,401.05c-11.25-6-23.26-10.13-36.02-12.76-13.88-3-27.76-4.88-42.02-4.88-7.5-.38-15.38.75-22.51,2.63-4.88,1.13-9,3.75-11.63,7.5-1.88,3-3,6.75-3,10.13s1.5,6.75,3.75,9.75c3.38,4.13,7.88,7.5,12.76,10.13,8.63,4.5,17.63,8.63,26.64,12.38,20.26,6.75,39.77,16.13,57.77,27.39,12.38,7.88,22.51,18.38,29.64,31.14,6,12.01,9,25.14,8.63,38.64.38,17.63-4.88,35.27-14.63,49.9-10.5,15.01-25.14,26.64-42.02,33.39-18.38,7.88-40.89,12.01-67.9,12.01-17.26,0-34.14-1.5-51.02-4.88-13.13-2.25-26.26-6.38-38.27-12.01-2.63-1.5-4.5-4.13-4.13-7.13v-65.28c0-1.13.38-2.63,1.5-3.38,1.13-.75,2.25-.38,3.38.38,14.63,8.63,30.01,14.63,46.52,18.38,14.26,3.75,29.26,5.63,44.27,5.63s24.39-1.88,31.14-5.25c6-2.63,10.13-9,10.13-15.76,0-5.25-3-10.13-9-15.01-6-4.88-18.38-10.5-36.77-17.63-19.13-6.75-36.77-15.76-53.27-27.01-11.63-8.25-21.38-19.13-28.51-31.89-6-12.01-9-25.14-8.63-38.27,0-16.13,4.5-31.51,12.76-45.39,9.38-15.01,23.26-27.01,39.39-34.51,17.63-9,39.77-13.13,66.4-13.13,15.38,0,31.14,1.13,46.52,3.38,11.25,1.5,22.13,4.5,32.26,8.63,1.5.38,3,1.88,3.75,3.38.38,1.5.75,3,.75,4.5v61.15c0,1.5-.75,3-1.88,3.75-3.38.75-5.25.75-6.75,0Z"/>
        </g>
      </g>
    </g>
  </g>
</svg>